<svg id="Group_73" data-name="Group 73" xmlns="http://www.w3.org/2000/svg" xmlns:xlink="http://www.w3.org/1999/xlink" width="113" height="29" viewBox="0 0 113 29">
  <defs>
    <clipPath id="clip-path">
      <rect id="Rectangle_11" data-name="Rectangle 11" width="113" height="29" transform="translate(0 0)" fill="none"/>
    </clipPath>
  </defs>
  <g id="Group_2" data-name="Group 2" clip-path="url(#clip-path)">
    <g id="Group_1" data-name="Group 1" transform="translate(0 0)">
      <path id="Path_1" data-name="Path 1" d="M6818.035,9153.676v5.249a.187.187,0,0,0,.118.174.188.188,0,0,0,.074.013h3.451a.345.345,0,0,1,.239.1.329.329,0,0,1,.1.234v3.97a.331.331,0,0,1-.025.127.343.343,0,0,1-.184.179.345.345,0,0,1-.129.025h-3.451a.188.188,0,0,0-.136.053.193.193,0,0,0-.042.062.175.175,0,0,0-.014.072v7.9a2.254,2.254,0,0,0,.562,1.727,2.606,2.606,0,0,0,1.769.51,8.7,8.7,0,0,0,1.255-.071.353.353,0,0,1,.146.007.315.315,0,0,1,.13.065.325.325,0,0,1,.09.112.317.317,0,0,1,.032.139V9178a.322.322,0,0,1-.059.189.337.337,0,0,1-.16.122,8.7,8.7,0,0,1-2.789.388,6.412,6.412,0,0,1-4.582-1.59,5.718,5.718,0,0,1-1.689-4.375v-8.8a.175.175,0,0,0-.014-.072.191.191,0,0,0-.041-.062.216.216,0,0,0-.063-.04.209.209,0,0,0-.074-.013H6809.5a.341.341,0,0,1-.239-.1.323.323,0,0,1-.1-.233v-3.97a.327.327,0,0,1,.1-.234.344.344,0,0,1,.239-.1h.666a2.961,2.961,0,0,0,1.23-.179,2.905,2.905,0,0,0,1.041-.665,3.1,3.1,0,0,0,.8-2.216v-2.376a.327.327,0,0,1,.1-.234.343.343,0,0,1,.239-.1h4.148a.346.346,0,0,1,.224.1A.328.328,0,0,1,6818.035,9153.676Z" transform="translate(-6772.673 -9150.009)" fill="#ea3d34"/>
      <path id="Path_2" data-name="Path 2" d="M6950.907,9196.115a5.023,5.023,0,0,1,.382-2.157,5.131,5.131,0,0,1,1.268-1.806,7.939,7.939,0,0,1,4.259-1.886l4.849-.708q1.49-.2,1.49-1.377a2.2,2.2,0,0,0-.217-1,2.262,2.262,0,0,0-.648-.8,4.546,4.546,0,0,0-5.147.2,3.316,3.316,0,0,0-1.06,1.909.328.328,0,0,1-.052.118.336.336,0,0,1-.094.09.341.341,0,0,1-.122.047.328.328,0,0,1-.131,0l-4.076-.844a.345.345,0,0,1-.218-.141.332.332,0,0,1-.054-.248,6.852,6.852,0,0,1,2.5-4.126,8.841,8.841,0,0,1,5.948-1.921q4.422,0,6.515,2.061a7.165,7.165,0,0,1,1.6,2.43,7.007,7.007,0,0,1,.49,2.848v9.5a18.163,18.163,0,0,0,.179,2.68.322.322,0,0,1-.074.271.34.34,0,0,1-.117.088.365.365,0,0,1-.144.03H6964a.346.346,0,0,1-.22-.079.332.332,0,0,1-.114-.2,11.862,11.862,0,0,1-.144-2.033,6.505,6.505,0,0,1-5.833,2.861,6.955,6.955,0,0,1-4.925-1.727,5.436,5.436,0,0,1-1.372-1.84A5.337,5.337,0,0,1,6950.907,9196.115Zm7.921,1.921a4.662,4.662,0,0,0,3.116-1.038,4.282,4.282,0,0,0,1.227-3.434v-.863l-4.462.664q-2.454.354-2.455,2.434a2.068,2.068,0,0,0,.17.867,2.118,2.118,0,0,0,.516.725,2.589,2.589,0,0,0,.87.5,2.666,2.666,0,0,0,1,.142Z" transform="translate(-6888.413 -9172.963)" fill="#ea3d34"/>
      <path id="Path_3" data-name="Path 3" d="M7080.585,9163.579H7075.9a.346.346,0,0,1-.24-.1.328.328,0,0,1-.1-.233V9135.5a.33.33,0,0,1,.1-.233.346.346,0,0,1,.24-.1h4.689a.344.344,0,0,1,.239.1.327.327,0,0,1,.1.233v27.749a.325.325,0,0,1-.1.233A.344.344,0,0,1,7080.585,9163.579Z" transform="translate(-6990.2 -9135.17)" fill="#ea3d34"/>
      <path id="Path_4" data-name="Path 4" d="M6722.344,9255.953a5.081,5.081,0,0,1-3.455-1.256,4.634,4.634,0,0,1-.8-.871.339.339,0,0,0-.15-.127.359.359,0,0,0-.2-.021.339.339,0,0,0-.175.093.321.321,0,0,0-.091.173l-.913,4.611a.337.337,0,0,0,.023.194.349.349,0,0,0,.129.151,10.319,10.319,0,0,0,5.578,1.529,9.609,9.609,0,0,0,5.853-1.731,8.332,8.332,0,0,0,3.068-4.118.276.276,0,0,0-.021-.219.28.28,0,0,0-.073-.086.3.3,0,0,0-.1-.053l-3.921-1.143a.292.292,0,0,0-.207.018.286.286,0,0,0-.14.149A4.325,4.325,0,0,1,6722.344,9255.953Z" transform="translate(-6697.06 -9231.429)" fill="#ea3d34"/>
      <path id="Path_5" data-name="Path 5" d="M6741.64,9184.233a9.552,9.552,0,0,0-7.172-2.667,10.429,10.429,0,0,0-1.362.089.355.355,0,0,0-.187.09.333.333,0,0,0-.1.179l-.773,3.936a.32.32,0,0,0,.013.178.327.327,0,0,0,.107.145.353.353,0,0,0,.169.068.345.345,0,0,0,.18-.029,4.782,4.782,0,0,1,2.032-.416,4.41,4.41,0,0,1,3.239,1.1,3.983,3.983,0,0,1,1.2,2.723h-5.012a.358.358,0,0,0-.216.078.336.336,0,0,0-.118.194l-.574,2.9a.332.332,0,0,0,.008.144.328.328,0,0,0,.068.127.348.348,0,0,0,.116.087.354.354,0,0,0,.143.032h10.758l.04-.276v-.626c0-.262.023-.5.023-.707A10.088,10.088,0,0,0,6741.64,9184.233Z" transform="translate(-6709.698 -9173.051)" fill="#ea3d34"/>
      <path id="Path_6" data-name="Path 6" d="M7146.706,9202.539a7.842,7.842,0,1,0-8.032-7.839A7.937,7.937,0,0,0,7146.706,9202.539Z" transform="translate(-7041.739 -9177.373)" fill="#0d23bf"/>
      <path id="Path_7" data-name="Path 7" d="M6624.438,9204.913H6610.7a.469.469,0,0,1-.193-.042.445.445,0,0,1-.156-.118.435.435,0,0,1-.1-.364l2.646-13.42a.442.442,0,0,1,.157-.258.457.457,0,0,1,.29-.1h13.729a.466.466,0,0,1,.35.16.433.433,0,0,1,.1.365l-2.646,13.419a.437.437,0,0,1-.155.257A.455.455,0,0,1,6624.438,9204.913Z" transform="translate(-6610.25 -9180.435)" fill="#0d23bf"/>
    </g>
  </g>
</svg>
