<svg id="Group_208" data-name="Group 208" xmlns="http://www.w3.org/2000/svg" xmlns:xlink="http://www.w3.org/1999/xlink" width="231.44" height="231.27" viewBox="0 0 231.44 231.27">
  <defs>
    <clipPath id="clip-path">
      <rect id="Rectangle_411" data-name="Rectangle 411" width="227.44" height="231.27" transform="translate(4)" fill="#fff"/>
    </clipPath>
  </defs>
  <g id="Group_207" data-name="Group 207" clip-path="url(#clip-path)">
    <path id="Path_702" data-name="Path 702" d="M7.97,61.92l1.82-3.51,1.88,7.38,9-2.09-1.79,3.47L12.27,68.5l.53,2.05,3.41,1.77L14.7,75.14,4,69.56l1.46-2.82,4.5,2.33Z" fill="#ea3d34"/>
    <path id="Path_703" data-name="Path 703" d="M11.19,56.21l4.09-5.87c.69-1,1.75-2.35,3.14-2.61a3.2,3.2,0,0,1,2.37.64,2.83,2.83,0,0,1,1.3,1.88,3.4,3.4,0,0,1-.19,1.76,2.589,2.589,0,0,1,1.41-.75,2.48,2.48,0,0,1,1.85.55l1.17.71a3.55,3.55,0,0,0,1.71.58l-1.93,2.77a2.57,2.57,0,0,1-1.53-.5l-.85-.53a1.93,1.93,0,0,0-1.53-.37,2.581,2.581,0,0,0-1.25,1l-1.7,2.44,3.65,2.54-1.82,2.61Zm6.24.46,1.92-2.76a2.32,2.32,0,0,0,.57-1.66,1.5,1.5,0,0,0-.63-.92,1.35,1.35,0,0,0-1.3-.19,3.42,3.42,0,0,0-1.08,1.1L15,54.99Z" fill="#ea3d34"/>
    <path id="Path_704" data-name="Path 704" d="M36.08,42.17a8.8,8.8,0,0,1-7.17,7.79,6.6,6.6,0,0,1-6.82-6.28,8.8,8.8,0,0,1,7.17-7.79,6.6,6.6,0,0,1,6.82,6.28Zm-11,.63a4.74,4.74,0,0,0,4.48,4.13,4.2,4.2,0,0,0,3.57-3.87,4.74,4.74,0,0,0-4.49-4.13,4.18,4.18,0,0,0-3.56,3.87Z" fill="#ea3d34"/>
    <path id="Path_705" data-name="Path 705" d="M49.221,32.78l-2.39,2-9.88-2.4,5.16,6.28-2.46,2-7.68-9.35,2.4-2,9.86,2.41-5.16-6.28,2.46-2Z" fill="#ea3d34"/>
    <path id="Path_706" data-name="Path 706" d="M47.16,19.68l6.77,10.05-2.64,1.78L44.52,21.46Z" fill="#ea3d34"/>
    <path id="Path_707" data-name="Path 707" d="M56.27,23.64v.06a1.5,1.5,0,0,0,1,.79,3.45,3.45,0,0,0,2.36-.56,3.669,3.669,0,0,0,1.38-1.08,1.41,1.41,0,0,0,.11-1.44,1.1,1.1,0,0,0-1.24-.5,10.377,10.377,0,0,0-1.66.46l-1.67.61c-1.25.45-2.72,1-3.82.6a2.77,2.77,0,0,1-1.52-1.37,3.409,3.409,0,0,1,0-3.51,7.37,7.37,0,0,1,3-2.68,8.169,8.169,0,0,1,4.09-1.33,3.05,3.05,0,0,1,2.85,1.79l-2.81,1.58a1.26,1.26,0,0,0-1.17-.62,4.86,4.86,0,0,0-1.86.65,3.52,3.52,0,0,0-1.29,1.09,1.24,1.24,0,0,0,0,1.22c.27.48.78.45,1.2.38a13.07,13.07,0,0,0,2-.62l1.32-.48a7.09,7.09,0,0,1,3.16-.62,3.12,3.12,0,0,1,2.36,1.72,3.46,3.46,0,0,1,.18,3.27c-.33.69-1.11,1.68-3.29,2.88-1.68.93-3.67,1.89-5.37,1.35a3.9,3.9,0,0,1-2.21-2v-.07Z" fill="#ea3d34"/>
    <path id="Path_708" data-name="Path 708" d="M70.7,7.76l3.66-1.47-3.38,6.82,8.18,4.29-3.63,1.47L69.7,15.55l-.93,1.9,1.42,3.57-3,1.18L62.7,10.95l3-1.18,1.88,4.71Z" fill="#ea3d34"/>
    <path id="Path_709" data-name="Path 709" d="M95.109,13.69l-1.63.35L83.32,5.76l2.17,10L84,16.08,81.439,4.24l1.64-.35,10.14,8.28-2.16-10,1.49-.32Z" fill="#ea3d34"/>
    <path id="Path_710" data-name="Path 710" d="M105.36.49l1.76-.16L102.6,7.71l.47,5.15-1.51.14-.48-5.15L95.3,1.41l1.81-.16,4.65,5.41Z" fill="#ea3d34"/>
    <path id="Path_711" data-name="Path 711" d="M110.11,8.6v.07a2.4,2.4,0,0,0,1.26,2.34,8.33,8.33,0,0,0,5.46.21,2.123,2.123,0,0,0,1.26-2,1.769,1.769,0,0,0-.87-1.62A6.386,6.386,0,0,0,115,6.9l-1.72-.34a8.687,8.687,0,0,1-3.62-1.18,2.431,2.431,0,0,1-.83-2A3.159,3.159,0,0,1,110.45.59a6.808,6.808,0,0,1,3.56-.68,7.41,7.41,0,0,1,3.74.79,2.85,2.85,0,0,1,1.56,2.81h-1.54a2,2,0,0,0-1.07-1.75,6,6,0,0,0-2.68-.55,5.27,5.27,0,0,0-2.48.39,2.07,2.07,0,0,0-1.19,1.8,1.47,1.47,0,0,0,.9,1.43,8.988,8.988,0,0,0,2.61.72l1.75.32a7.089,7.089,0,0,1,2.94,1,2.674,2.674,0,0,1,1.15,2.39,3.22,3.22,0,0,1-1.85,3,7.6,7.6,0,0,1-3.55.57,9.508,9.508,0,0,1-3.56-.56,3.51,3.51,0,0,1-2.15-3.55V8.61Z" fill="#ea3d34"/>
    <path id="Path_712" data-name="Path 712" d="M134.8,8.39l-.89,6.11-1.26-.18.32-2.21a4.351,4.351,0,0,1-2.12,1.7,7.18,7.18,0,0,1-3.37.11,6.391,6.391,0,0,1-4.57-2.37,6.564,6.564,0,0,1-.93-4.86,6.37,6.37,0,0,1,2.48-4.48,6.78,6.78,0,0,1,5.17-1,7.517,7.517,0,0,1,4.16,1.71,3.566,3.566,0,0,1,1.17,3L133.4,5.7a2.811,2.811,0,0,0-1-2.23,5.847,5.847,0,0,0-2.87-1.06,5.2,5.2,0,0,0-3.94.76,5.585,5.585,0,0,0-2,3.76,5.431,5.431,0,0,0,.81,4,4.894,4.894,0,0,0,3.45,1.76,5,5,0,0,0,3.76-.64,4.566,4.566,0,0,0,1.61-2.79l-4.46-.65.16-1.13Z" fill="#ea3d34"/>
    <path id="Path_713" data-name="Path 713" d="M146.791,10.92l-.33,1.2-7.29-2-1.15,4.18,8.31,2.28-.33,1.2-9.78-2.68,3.2-11.67,9.54,2.61-.32,1.2-8.08-2.21L139.5,8.92Z" fill="#ea3d34"/>
    <path id="Path_714" data-name="Path 714" d="M152.13,7.12l5.74,2.34c.91.37,2.49,1,3.15,2.12a2.937,2.937,0,0,1,.07,2.63,3,3,0,0,1-1.49,1.67,3.409,3.409,0,0,1-2,.16,2.712,2.712,0,0,1,1.07,1.22,2.652,2.652,0,0,1-.13,1.93L158,20.75a2.72,2.72,0,0,0-.15,1.73l-1.54-.63a3.264,3.264,0,0,1,.21-1.65l.47-1.34a2.309,2.309,0,0,0,.12-1.76,3.173,3.173,0,0,0-1.79-1.37l-4.33-1.76-2,4.9-1.41-.57Zm-.7,5.77,4.4,1.79a3.93,3.93,0,0,0,2.4.31,2,2,0,0,0,1.34-1.27,1.818,1.818,0,0,0-.17-2,5.391,5.391,0,0,0-2.21-1.27l-4.1-1.67Z" fill="#ea3d34"/>
    <path id="Path_715" data-name="Path 715" d="M165.91,13.06l5.39,3c.86.49,2.36,1.29,2.86,2.51a2.908,2.908,0,0,1-.26,2.61,3,3,0,0,1-1.68,1.47,3.25,3.25,0,0,1-2-.1v.05a2.586,2.586,0,0,1,.91,1.35,2.619,2.619,0,0,1-.37,1.89l-.73,1.48a2.658,2.658,0,0,0-.36,1.7l-1.45-.82a3.194,3.194,0,0,1,.41-1.61l.64-1.27a2.323,2.323,0,0,0,.34-1.74A3.171,3.171,0,0,0,168,22l-4.07-2.29-2.6,4.61L160,23.57Zm-1.43,5.63,4.15,2.34a3.861,3.861,0,0,0,2.34.6,2,2,0,0,0,1.49-1.09,1.788,1.788,0,0,0,.07-2,5.408,5.408,0,0,0-2-1.54l-3.86-2.17Z" fill="#ea3d34"/>
    <path id="Path_716" data-name="Path 716" d="M179.7,21.35l-6.82,10-1.26-.86,6.82-10Z" fill="#ea3d34"/>
    <path id="Path_717" data-name="Path 717" d="M188.77,35.97l-3.92,4.77-1-.81,1.42-1.72a4.351,4.351,0,0,1-2.7.36,7.168,7.168,0,0,1-2.93-1.65,6.379,6.379,0,0,1-2.68-4.4,6.532,6.532,0,0,1,1.71-4.64,6.378,6.378,0,0,1,4.44-2.54,6.729,6.729,0,0,1,4.94,1.84,7.531,7.531,0,0,1,2.67,3.61,3.591,3.591,0,0,1-.56,3.19l-1.21-1a2.832,2.832,0,0,0,.29-2.43,5.906,5.906,0,0,0-1.91-2.39,5.219,5.219,0,0,0-3.76-1.39,5.649,5.649,0,0,0-3.67,2.17,5.473,5.473,0,0,0-1.39,3.87,4.855,4.855,0,0,0,2,3.29,5,5,0,0,0,3.55,1.4,4.6,4.6,0,0,0,2.83-1.55l-3.49-2.87.72-.88Z" fill="#ea3d34"/>
    <path id="Path_718" data-name="Path 718" d="M199.7,47.23l-.54.48-6.07-6.78.54-.48Z" fill="#ea3d34"/>
    <path id="Path_719" data-name="Path 719" d="M213.29,56.58l2.16,3.29-7.35-2-2.58,8.87-2.16-3.26,2.09-6.42-2-.53-3.21,2.1-1.75-2.66,10.13-6.64,1.74,2.66-4.24,2.78Z" fill="#ea3d34"/>
    <path id="Path_720" data-name="Path 720" d="M216.7,62.21l3.12,6.44c.52,1.08,1.2,2.67.73,4a3.109,3.109,0,0,1-1.7,1.75,2.81,2.81,0,0,1-2.28.22,3.329,3.329,0,0,1-1.44-1h-.07a2.473,2.473,0,0,1,0,1.59,2.506,2.506,0,0,1-1.39,1.35l-1.19.67a3.528,3.528,0,0,0-1.34,1.21l-1.47-3a2.58,2.58,0,0,1,1.18-1.09l.88-.49a2,2,0,0,0,1.08-1.15,2.666,2.666,0,0,0-.29-1.59l-1.3-2.68-4,1.94-1.39-2.86Zm-3.45,5.21,1.47,3a2.259,2.259,0,0,0,1.17,1.3,1.41,1.41,0,0,0,1.1-.09,1.332,1.332,0,0,0,.8-1,3.243,3.243,0,0,0-.43-1.49l-1.45-3Z" fill="#ea3d34"/>
    <path id="Path_721" data-name="Path 721" d="M216.7,90.77a8.841,8.841,0,0,1-3.27-10.07,6.6,6.6,0,0,1,8.821-2.86,8.8,8.8,0,0,1,3.269,10.07,6.6,6.6,0,0,1-8.82,2.86Zm4.86-9.91a4.741,4.741,0,0,0-5.79,1.88,4.181,4.181,0,0,0,1.62,5,4.76,4.76,0,0,0,5.8-1.88,4,4,0,0,0-1.6-5Z" fill="#ea3d34"/>
    <path id="Path_722" data-name="Path 722" d="M218.439,106.87l-.53-3.05,7-7.41-8,1.4-.55-3.14,11.94-2.09.53,3.07-7,7.4,8-1.4.55,3.14Z" fill="#ea3d34"/>
    <path id="Path_723" data-name="Path 723" d="M230.849,111.47l-12.08.95-.24-3.18,12.07-.94Z" fill="#ea3d34"/>
    <path id="Path_724" data-name="Path 724" d="M222.93,117.47h-.07a1.485,1.485,0,0,0-1.16.46,3.482,3.482,0,0,0-.68,2.33,3.721,3.721,0,0,0,.26,1.73,1.424,1.424,0,0,0,1.21.8c.27,0,.74-.11,1-.84a10.8,10.8,0,0,0,.41-1.67l.29-1.75c.22-1.31.48-2.85,1.35-3.62a2.814,2.814,0,0,1,1.94-.66,3.417,3.417,0,0,1,3.08,1.69,7.457,7.457,0,0,1,.84,4,8.118,8.118,0,0,1-.85,4.21,3,3,0,0,1-3,1.6v-3.21a1.267,1.267,0,0,0,1.11-.72,4.9,4.9,0,0,0,.35-1.94,3.606,3.606,0,0,0-.32-1.66,1.21,1.21,0,0,0-1-.61c-.55,0-.78.46-.92.86a13.192,13.192,0,0,0-.45,2.07l-.24,1.38a7.2,7.2,0,0,1-1,3.07,3.111,3.111,0,0,1-2.66,1.2,3.431,3.431,0,0,1-2.93-1.44c-.44-.62-.92-1.79-.9-4.28,0-1.92.16-4.11,1.46-5.33a3.923,3.923,0,0,1,2.8-1h.07Z" fill="#ea3d34"/>
    <path id="Path_725" data-name="Path 725" d="M229.7,137.87l-.52,3.91-4.28-6.29-7.75,5,.5-3.88,5.77-3.49-1.2-1.75-3.81-.5.42-3.16,12,1.6-.42,3.15-5-.66Z" fill="#ea3d34"/>
    <path id="Path_726" data-name="Path 726" d="M212.59,156.19l.49-1.59,12.19-4.82-9.79-3,.45-1.46,11.58,3.56-.5,1.6-12.19,4.8,9.8,3-.45,1.45Z" fill="#ea3d34"/>
    <path id="Path_727" data-name="Path 727" d="M219.07,171.6l-.72,1.62-4.22-7.56-4.73-2.11.62-1.39,4.73,2.11,8.44-1.89-.74,1.66-7,1.4Z" fill="#ea3d34"/>
    <path id="Path_728" data-name="Path 728" d="M209.7,171.77h-.06a2.39,2.39,0,0,0-2.65-.06,6.813,6.813,0,0,0-1.9,2.22,7.009,7.009,0,0,0-1,2.44,2.159,2.159,0,0,0,1.08,2.06,1.787,1.787,0,0,0,1.84,0,6.25,6.25,0,0,0,1.7-1.59l1.14-1.33c.87-1,1.78-2.19,2.81-2.57a2.392,2.392,0,0,1,2.11.24,3.118,3.118,0,0,1,1.63,2.78,6.819,6.819,0,0,1-1.15,3.44,7.544,7.544,0,0,1-2.53,2.87,2.869,2.869,0,0,1-3.21,0l.78-1.33a2,2,0,0,0,2.1,0,6.054,6.054,0,0,0,1.79-2.06,5.372,5.372,0,0,0,.88-2.35,2.07,2.07,0,0,0-1-1.92,1.49,1.49,0,0,0-1.69.07,9.079,9.079,0,0,0-1.91,1.93l-1.14,1.36a6.994,6.994,0,0,1-2.33,2.06,2.693,2.693,0,0,1-2.6-.22,3.219,3.219,0,0,1-1.67-3.07,7.512,7.512,0,0,1,1.26-3.37,9.3,9.3,0,0,1,2.23-2.82,3.542,3.542,0,0,1,4.15-.14l.09.06Z" fill="#ea3d34"/>
    <path id="Path_729" data-name="Path 729" d="M197.7,193.38l-4.89-3.78.79-1,1.76,1.37a4.306,4.306,0,0,1-.44-2.68,7.078,7.078,0,0,1,1.57-3,6.369,6.369,0,0,1,4.31-2.8,6.545,6.545,0,0,1,4.69,1.57,6.446,6.446,0,0,1,2.68,4.37,6.728,6.728,0,0,1-1.7,5,7.41,7.41,0,0,1-3.53,2.78,3.561,3.561,0,0,1-3.2-.46l1-1.25a2.787,2.787,0,0,0,2.43.22,5.769,5.769,0,0,0,2.34-2,5.224,5.224,0,0,0,1.28-3.8,5.6,5.6,0,0,0-2.28-3.61,5.4,5.4,0,0,0-3.91-1.28,4.88,4.88,0,0,0-3.23,2.14,5,5,0,0,0-1.3,3.59,4.611,4.611,0,0,0,1.64,2.78l2.76-3.57.91.7Z" fill="#ea3d34"/>
    <path id="Path_730" data-name="Path 730" d="M189.7,202.53l-.89-.86,5.26-5.43-3.12-3-6,6.19-.89-.86,7.06-7.29,8.7,8.43-6.89,7.11-.9-.87,5.83-6-2.89-2.81Z" fill="#ea3d34"/>
    <path id="Path_731" data-name="Path 731" d="M190.31,209.06l-4.84,3.86c-.78.61-2.08,1.69-3.4,1.7a2.911,2.911,0,0,1-2.32-1.22,3,3,0,0,1-.74-2.12,3.345,3.345,0,0,1,.85-1.82,2.73,2.73,0,0,1-1.59.34,2.691,2.691,0,0,1-1.62-1.06l-1.09-1.24a2.733,2.733,0,0,0-1.44-1l1.3-1a3.229,3.229,0,0,1,1.34,1l.94,1.07a2.28,2.28,0,0,0,1.48,1,3.146,3.146,0,0,0,2.07-.9l3.65-2.91-3.29-4.14,1.19-1Zm-4.68-3.44-3.72,3a3.854,3.854,0,0,0-1.44,2,1.938,1.938,0,0,0,.45,1.78,1.77,1.77,0,0,0,1.79.81,5.38,5.38,0,0,0,2.19-1.3l3.47-2.76Z" fill="#ea3d34"/>
    <path id="Path_732" data-name="Path 732" d="M178.419,218.17l-5.289,3.22c-.85.51-2.281,1.42-3.581,1.26a2.893,2.893,0,0,1-2.15-1.5,3,3,0,0,1-.46-2.19,3.32,3.32,0,0,1,1.071-1.71,2.33,2.33,0,0,1-3.091-1.12L164,214.77a2.735,2.735,0,0,0-1.311-1.15l1.42-.86a3.215,3.215,0,0,1,1.2,1.15l.8,1.18a2.31,2.31,0,0,0,1.34,1.14,3.087,3.087,0,0,0,2.171-.63l4-2.42-2.75-4.52,1.3-.79Zm-4.21-4-4.07,2.46a4,4,0,0,0-1.67,1.75,2,2,0,0,0,.22,1.83,1.79,1.79,0,0,0,1.681,1,5.367,5.367,0,0,0,2.339-1l3.781-2.3Z" fill="#ea3d34"/>
    <path id="Path_733" data-name="Path 733" d="M164.41,226.12l-5.39-10.84,1.36-.68,5.4,10.84Z" fill="#ea3d34"/>
    <path id="Path_734" data-name="Path 734" d="M147.2,226.88l-2.24-5.75,1.19-.47.81,2.08a4.3,4.3,0,0,1,1-2.52,7.109,7.109,0,0,1,2.88-1.75,6.368,6.368,0,0,1,5.14-.18,6.529,6.529,0,0,1,3.21,3.77,6.392,6.392,0,0,1,0,5.12,6.765,6.765,0,0,1-4,3.4,7.594,7.594,0,0,1-4.45.56,3.633,3.633,0,0,1-2.51-2l1.47-.57a2.811,2.811,0,0,0,2,1.44,5.868,5.868,0,0,0,3-.49,5.195,5.195,0,0,0,3.06-2.59,5.657,5.657,0,0,0-.1-4.27,5.469,5.469,0,0,0-2.69-3.11,4.862,4.862,0,0,0-3.87.17,5,5,0,0,0-3,2.41,4.566,4.566,0,0,0,0,3.22l4.21-1.63.41,1.06Z" fill="#ea3d34"/>
  </g>
  <path id="Path_735" data-name="Path 735" d="M7.558,81.5A110.092,110.092,0,0,0,135.5,226.262" fill="none" stroke="#ea3d34" stroke-width="2"/>
</svg>
