<svg xmlns="http://www.w3.org/2000/svg" width="1451.675" height="70" viewBox="0 0 1451.675 70">
  <g id="Group_215" data-name="Group 215" transform="translate(11.675)">
    <rect id="Rectangle_415" data-name="Rectangle 415" width="1440" height="70"/>
    <path id="Path_789" data-name="Path 789" d="M-9.525,43V32.15h-2.15V30.5h2.15V29.4A3.781,3.781,0,0,1-8.3,26.325,5.205,5.205,0,0,1-4.9,25.3h.15v1.775H-5a2.885,2.885,0,0,0-1.975.6A2.338,2.338,0,0,0-7.65,29.55v.95h2.9v1.65h-2.9V43Zm7.847.4.825-1.425a5.778,5.778,0,0,1-1.775-2.25,7.357,7.357,0,0,1-.6-2.975,6.968,6.968,0,0,1,.75-3.25,5.675,5.675,0,0,1,2.15-2.325,6.1,6.1,0,0,1,3.3-.875,6.693,6.693,0,0,1,2.6.5l.525-.925h1.85L6.922,31.65a5.727,5.727,0,0,1,1.65,2.2,6.948,6.948,0,0,1,.6,2.9A7.066,7.066,0,0,1,8.422,40a5.845,5.845,0,0,1-2.15,2.35,6.153,6.153,0,0,1-3.3.85,6.469,6.469,0,0,1-2.425-.45l-.375.65Zm.325-6.65A5.811,5.811,0,0,0-1,38.775,4.714,4.714,0,0,0,.047,40.4L4.7,32.325A4.539,4.539,0,0,0,2.972,32a4.139,4.139,0,0,0-2.35.65A4.121,4.121,0,0,0-.853,34.375,5.563,5.563,0,0,0-1.353,36.75ZM2.972,41.5a4.065,4.065,0,0,0,2.35-.65A4.121,4.121,0,0,0,6.8,39.125a5.563,5.563,0,0,0,.5-2.375,5.625,5.625,0,0,0-.325-1.925,4.537,4.537,0,0,0-.95-1.6l-4.6,8.025A4.581,4.581,0,0,0,2.972,41.5ZM12.158,43V25.5h1.875V43ZM23.51,48.15a6.564,6.564,0,0,1-3.825-1.025,4.941,4.941,0,0,1-2-2.625H19.76a2.771,2.771,0,0,0,1.3,1.425,4.716,4.716,0,0,0,2.35.525,4.149,4.149,0,0,0,3.125-1.025,3.964,3.964,0,0,0,1-2.925V40.775A5.376,5.376,0,0,1,25.71,42.4a5.461,5.461,0,0,1-2.65.6,6.1,6.1,0,0,1-3.2-.825,5.827,5.827,0,0,1-2.1-2.3,6.914,6.914,0,0,1-.75-3.225,6.818,6.818,0,0,1,.75-3.225,5.65,5.65,0,0,1,2.1-2.275,5.96,5.96,0,0,1,3.2-.85,5.461,5.461,0,0,1,2.65.6,4.839,4.839,0,0,1,1.825,1.6v-2H29.41V42.625a5.291,5.291,0,0,1-1.55,4.1A6.135,6.135,0,0,1,23.51,48.15Zm-.2-6.85a4.138,4.138,0,0,0,2.325-.625A3.988,3.988,0,0,0,27.11,39a5.283,5.283,0,0,0,.525-2.35,5.181,5.181,0,0,0-.525-2.35,3.988,3.988,0,0,0-1.475-1.675A4.139,4.139,0,0,0,23.31,32a4.389,4.389,0,0,0-2.375.625A4.105,4.105,0,0,0,19.41,34.3a5.181,5.181,0,0,0-.525,2.35A5.283,5.283,0,0,0,19.41,39a4.105,4.105,0,0,0,1.525,1.675A4.389,4.389,0,0,0,23.31,41.3ZM44.4,43.2a6.234,6.234,0,0,1-3.3-.85A5.845,5.845,0,0,1,38.951,40a7.066,7.066,0,0,1-.75-3.25,6.968,6.968,0,0,1,.75-3.25,5.675,5.675,0,0,1,2.15-2.325,6.1,6.1,0,0,1,3.3-.875,6.018,6.018,0,0,1,3.3.875,5.675,5.675,0,0,1,2.15,2.325,6.968,6.968,0,0,1,.75,3.25,7.066,7.066,0,0,1-.75,3.25,5.845,5.845,0,0,1-2.15,2.35A6.153,6.153,0,0,1,44.4,43.2Zm0-1.7a4.065,4.065,0,0,0,2.35-.65,4.121,4.121,0,0,0,1.475-1.725,5.672,5.672,0,0,0,.5-2.375,5.563,5.563,0,0,0-.5-2.375,4.121,4.121,0,0,0-1.475-1.725A4.065,4.065,0,0,0,44.4,32a4.025,4.025,0,0,0-3.825,2.375,5.563,5.563,0,0,0-.5,2.375,5.672,5.672,0,0,0,.5,2.375A4.025,4.025,0,0,0,44.4,41.5Zm13.736,1.7a6.73,6.73,0,0,1-2.925-.575,4.49,4.49,0,0,1-1.8-1.5,4.194,4.194,0,0,1-.7-2.05h1.95a3.168,3.168,0,0,0,.425,1.225,2.788,2.788,0,0,0,1.125.95,4.64,4.64,0,0,0,1.95.35,7.046,7.046,0,0,0,.925-.075,4.427,4.427,0,0,0,1.05-.275,2.164,2.164,0,0,0,.875-.6,1.5,1.5,0,0,0,.35-1.025,1.385,1.385,0,0,0-.6-1.2,4.435,4.435,0,0,0-1.55-.65q-.95-.25-2.025-.475a14.672,14.672,0,0,1-2-.575,4.135,4.135,0,0,1-1.55-1.025,2.647,2.647,0,0,1-.6-1.825,3.1,3.1,0,0,1,1.225-2.625,6.008,6.008,0,0,1,3.675-.95,5.876,5.876,0,0,1,2.675.525,3.748,3.748,0,0,1,1.575,1.3,3.71,3.71,0,0,1,.65,1.725h-1.9a2.08,2.08,0,0,0-.8-1.375,3.475,3.475,0,0,0-2.25-.575q-2.975,0-2.975,1.8a1.3,1.3,0,0,0,.6,1.15,5.164,5.164,0,0,0,1.55.65q.95.225,2,.45a10.96,10.96,0,0,1,2.025.575,3.869,3.869,0,0,1,1.55,1.075,2.686,2.686,0,0,1,.6,1.85,3.2,3.2,0,0,1-1.4,2.8A6.406,6.406,0,0,1,58.137,43.2ZM71.97,47.95V30.5h1.875v2a4.892,4.892,0,0,1,1.8-1.6,5.609,5.609,0,0,1,2.675-.6,5.815,5.815,0,0,1,5.3,3.2,6.968,6.968,0,0,1,.75,3.25A7.066,7.066,0,0,1,83.62,40a5.9,5.9,0,0,1-2.125,2.35,5.833,5.833,0,0,1-3.175.85,5.609,5.609,0,0,1-2.675-.6,5.45,5.45,0,0,1-1.8-1.625V47.95Zm6.1-6.45a4.185,4.185,0,0,0,2.375-.65,4.238,4.238,0,0,0,1.525-1.725,5.443,5.443,0,0,0,.525-2.375,5.339,5.339,0,0,0-.525-2.375,4.238,4.238,0,0,0-1.525-1.725A4.185,4.185,0,0,0,78.07,32a4.025,4.025,0,0,0-3.825,2.375,5.563,5.563,0,0,0-.5,2.375,5.672,5.672,0,0,0,.5,2.375A4.025,4.025,0,0,0,78.07,41.5Zm14.543,1.7a5.632,5.632,0,0,1-5.3-3.2,7.066,7.066,0,0,1-.75-3.25,6.968,6.968,0,0,1,.75-3.25,5.743,5.743,0,0,1,5.3-3.2,5.461,5.461,0,0,1,2.65.6,5.051,5.051,0,0,1,1.825,1.625V30.5h1.875V43H97.088V41a5.142,5.142,0,0,1-1.825,1.6A5.461,5.461,0,0,1,92.613,43.2Zm.25-1.7a4.065,4.065,0,0,0,2.35-.65,4.121,4.121,0,0,0,1.475-1.725,5.672,5.672,0,0,0,.5-2.375,5.563,5.563,0,0,0-.5-2.375,4.121,4.121,0,0,0-1.475-1.725,4.065,4.065,0,0,0-2.35-.65,4.168,4.168,0,0,0-3.9,2.375,5.339,5.339,0,0,0-.525,2.375,5.443,5.443,0,0,0,.525,2.375,4.168,4.168,0,0,0,3.9,2.375Zm.275-12.4a2.219,2.219,0,0,1-2.225-2.225,2.175,2.175,0,0,1,.65-1.6,2.145,2.145,0,0,1,1.575-.65,2.175,2.175,0,0,1,1.6.65,2.134,2.134,0,0,1,.675,1.6,2.106,2.106,0,0,1-.675,1.575A2.175,2.175,0,0,1,93.138,29.1Zm0-1.125a1.087,1.087,0,0,0,.8-.325,1.058,1.058,0,0,0,.325-.775,1.11,1.11,0,0,0-1.125-1.125,1.03,1.03,0,0,0-.75.325,1.087,1.087,0,0,0-.325.8,1.058,1.058,0,0,0,.325.775A1.03,1.03,0,0,0,93.138,27.975ZM108.928,43V26.45H110.8V43Zm6.033,0V30.5h1.875v1.95a6.274,6.274,0,0,1,1.65-1.525,4.556,4.556,0,0,1,2.5-.625,4.912,4.912,0,0,1,2.425.625,4.53,4.53,0,0,1,1.85,1.825,5.664,5.664,0,0,1,.725,2.975V43h-1.875V35.775a3.79,3.79,0,0,0-.975-2.725A3.289,3.289,0,0,0,120.611,32a3.828,3.828,0,0,0-1.9.475,3.68,3.68,0,0,0-1.375,1.35,3.826,3.826,0,0,0-.5,1.975V43Zm19.21.2a6.73,6.73,0,0,1-2.925-.575,4.494,4.494,0,0,1-1.8-1.5,4.191,4.191,0,0,1-.7-2.05h1.95a3.173,3.173,0,0,0,.425,1.225,2.788,2.788,0,0,0,1.125.95,4.64,4.64,0,0,0,1.95.35,7.05,7.05,0,0,0,.925-.075,4.419,4.419,0,0,0,1.05-.275,2.162,2.162,0,0,0,.875-.6,1.5,1.5,0,0,0,.35-1.025,1.385,1.385,0,0,0-.6-1.2,4.437,4.437,0,0,0-1.55-.65q-.949-.25-2.025-.475a14.66,14.66,0,0,1-2-.575,4.137,4.137,0,0,1-1.55-1.025,2.647,2.647,0,0,1-.6-1.825A3.094,3.094,0,0,1,130.3,31.25a6.006,6.006,0,0,1,3.675-.95,5.875,5.875,0,0,1,2.675.525,3.748,3.748,0,0,1,1.575,1.3,3.71,3.71,0,0,1,.65,1.725h-1.9a2.08,2.08,0,0,0-.8-1.375,3.475,3.475,0,0,0-2.25-.575q-2.975,0-2.975,1.8a1.3,1.3,0,0,0,.6,1.15,5.167,5.167,0,0,0,1.55.65q.95.225,2,.45a10.946,10.946,0,0,1,2.025.575,3.871,3.871,0,0,1,1.55,1.075,2.686,2.686,0,0,1,.6,1.85,3.205,3.205,0,0,1-1.4,2.8A6.407,6.407,0,0,1,134.171,43.2Zm9.361-.2V32.15h-2.55V30.5h2.55V26.025h1.875V30.5h2.875v1.65h-2.875V43Zm12.335.2a5.632,5.632,0,0,1-5.3-3.2,7.066,7.066,0,0,1-.75-3.25,6.968,6.968,0,0,1,.75-3.25,5.743,5.743,0,0,1,5.3-3.2,5.464,5.464,0,0,1,2.65.6,5.053,5.053,0,0,1,1.825,1.625V30.5h1.875V43h-1.875V41a5.144,5.144,0,0,1-1.825,1.6A5.464,5.464,0,0,1,155.867,43.2Zm.25-1.7a4.067,4.067,0,0,0,2.35-.65,4.126,4.126,0,0,0,1.475-1.725,5.676,5.676,0,0,0,.5-2.375,5.568,5.568,0,0,0-.5-2.375,4.126,4.126,0,0,0-1.475-1.725,4.067,4.067,0,0,0-2.35-.65,4.168,4.168,0,0,0-3.9,2.375,5.339,5.339,0,0,0-.525,2.375,5.443,5.443,0,0,0,.525,2.375,4.168,4.168,0,0,0,3.9,2.375Zm15.568,6.65a6.563,6.563,0,0,1-3.825-1.025,4.943,4.943,0,0,1-2-2.625h2.075a2.77,2.77,0,0,0,1.3,1.425,4.717,4.717,0,0,0,2.35.525,4.149,4.149,0,0,0,3.125-1.025,3.962,3.962,0,0,0,1-2.925V40.775a5.379,5.379,0,0,1-1.825,1.625,5.461,5.461,0,0,1-2.65.6,6.1,6.1,0,0,1-3.2-.825,5.827,5.827,0,0,1-2.1-2.3,6.914,6.914,0,0,1-.75-3.225,6.818,6.818,0,0,1,.75-3.225,5.65,5.65,0,0,1,2.1-2.275,5.96,5.96,0,0,1,3.2-.85,5.461,5.461,0,0,1,2.65.6,4.842,4.842,0,0,1,1.825,1.6v-2h1.875V42.625a5.292,5.292,0,0,1-1.55,4.1A6.136,6.136,0,0,1,171.685,48.15Zm-.2-6.85a4.137,4.137,0,0,0,2.325-.625A3.985,3.985,0,0,0,175.285,39a5.283,5.283,0,0,0,.525-2.35,5.181,5.181,0,0,0-.525-2.35,3.985,3.985,0,0,0-1.475-1.675A4.137,4.137,0,0,0,171.485,32a4.389,4.389,0,0,0-2.375.625,4.1,4.1,0,0,0-1.525,1.675,5.181,5.181,0,0,0-.525,2.35,5.282,5.282,0,0,0,.525,2.35,4.1,4.1,0,0,0,1.525,1.675A4.389,4.389,0,0,0,171.485,41.3Zm9.843,1.7V30.5H183.2v3.075a5.407,5.407,0,0,1,.375-.85,4.885,4.885,0,0,1,.85-1.1A4.714,4.714,0,0,1,187.8,30.3h.125v1.875H187.7a3.906,3.906,0,0,0-2.425.775,4.948,4.948,0,0,0-1.55,1.975A6.353,6.353,0,0,0,183.2,37.5V43Zm14.076.2a5.632,5.632,0,0,1-5.3-3.2,7.066,7.066,0,0,1-.75-3.25,6.968,6.968,0,0,1,.75-3.25,5.743,5.743,0,0,1,5.3-3.2,5.461,5.461,0,0,1,2.65.6,5.053,5.053,0,0,1,1.825,1.625V30.5h1.875V43h-1.875V41a5.144,5.144,0,0,1-1.825,1.6A5.461,5.461,0,0,1,195.4,43.2Zm.25-1.7a4.065,4.065,0,0,0,2.35-.65,4.119,4.119,0,0,0,1.475-1.725,5.676,5.676,0,0,0,.5-2.375,5.568,5.568,0,0,0-.5-2.375A4.119,4.119,0,0,0,198,32.65a4.065,4.065,0,0,0-2.35-.65,4.168,4.168,0,0,0-3.9,2.375,5.339,5.339,0,0,0-.525,2.375,5.443,5.443,0,0,0,.525,2.375,4.168,4.168,0,0,0,3.9,2.375ZM205.5,43V30.5h1.875v1.9a4.666,4.666,0,0,1,1.35-1.425,4.064,4.064,0,0,1,2.45-.675,4.169,4.169,0,0,1,2.3.675,4.4,4.4,0,0,1,1.675,1.85,7.194,7.194,0,0,1,.775-1.025,5.033,5.033,0,0,1,1.425-1.05,4.54,4.54,0,0,1,2.1-.45,4.325,4.325,0,0,1,2.25.625,4.664,4.664,0,0,1,1.7,1.8,5.288,5.288,0,0,1,.675,2.725V43H222.2V35.5a3.52,3.52,0,0,0-.9-2.525A2.831,2.831,0,0,0,219.1,32a3.3,3.3,0,0,0-3.375,3.525V43h-1.875V35.5a3.52,3.52,0,0,0-.9-2.525,2.831,2.831,0,0,0-2.2-.975,3.3,3.3,0,0,0-3.375,3.525V43Z" fill="#fcf5e6"/>
    <path id="Path_790" data-name="Path 790" d="M293.475,43V32.15h-2.15V30.5h2.15V29.4a3.78,3.78,0,0,1,1.225-3.075,5.205,5.205,0,0,1,3.4-1.025h.15v1.775H298a2.885,2.885,0,0,0-1.975.6,2.338,2.338,0,0,0-.675,1.875v.95h2.9v1.65h-2.9V43Zm7.847.4.825-1.425a5.778,5.778,0,0,1-1.775-2.25,7.356,7.356,0,0,1-.6-2.975,6.968,6.968,0,0,1,.75-3.25,5.677,5.677,0,0,1,2.15-2.325,6.1,6.1,0,0,1,3.3-.875,6.694,6.694,0,0,1,2.6.5l.525-.925h1.85l-1.025,1.775a5.72,5.72,0,0,1,1.65,2.2,6.948,6.948,0,0,1,.6,2.9,7.066,7.066,0,0,1-.75,3.25,5.847,5.847,0,0,1-2.15,2.35,6.155,6.155,0,0,1-3.3.85,6.468,6.468,0,0,1-2.425-.45l-.375.65Zm.325-6.65a5.818,5.818,0,0,0,.35,2.025,4.714,4.714,0,0,0,1.05,1.625l4.65-8.075A4.536,4.536,0,0,0,305.972,32a4.025,4.025,0,0,0-3.825,2.375A5.567,5.567,0,0,0,301.647,36.75Zm4.325,4.75a4.065,4.065,0,0,0,2.35-.65,4.119,4.119,0,0,0,1.475-1.725,5.878,5.878,0,0,0,.175-4.3,4.536,4.536,0,0,0-.95-1.6l-4.6,8.025A4.581,4.581,0,0,0,305.972,41.5Zm9.186,1.5V25.5h1.875V43Zm11.352,5.15a6.563,6.563,0,0,1-3.825-1.025,4.943,4.943,0,0,1-2-2.625h2.075a2.77,2.77,0,0,0,1.3,1.425,4.717,4.717,0,0,0,2.35.525,4.149,4.149,0,0,0,3.125-1.025,3.962,3.962,0,0,0,1-2.925V40.775A5.379,5.379,0,0,1,328.71,42.4a5.461,5.461,0,0,1-2.65.6,6.1,6.1,0,0,1-3.2-.825,5.827,5.827,0,0,1-2.1-2.3,6.914,6.914,0,0,1-.75-3.225,6.818,6.818,0,0,1,.75-3.225,5.65,5.65,0,0,1,2.1-2.275,5.96,5.96,0,0,1,3.2-.85,5.461,5.461,0,0,1,2.65.6,4.842,4.842,0,0,1,1.825,1.6v-2h1.875V42.625a5.292,5.292,0,0,1-1.55,4.1A6.136,6.136,0,0,1,326.51,48.15Zm-.2-6.85a4.137,4.137,0,0,0,2.325-.625A3.985,3.985,0,0,0,330.11,39a5.282,5.282,0,0,0,.525-2.35,5.181,5.181,0,0,0-.525-2.35,3.985,3.985,0,0,0-1.475-1.675A4.137,4.137,0,0,0,326.31,32a4.389,4.389,0,0,0-2.375.625A4.1,4.1,0,0,0,322.41,34.3a5.181,5.181,0,0,0-.525,2.35A5.282,5.282,0,0,0,322.41,39a4.1,4.1,0,0,0,1.525,1.675A4.389,4.389,0,0,0,326.31,41.3ZM347.4,43.2a6.233,6.233,0,0,1-3.3-.85,5.84,5.84,0,0,1-2.15-2.35,7.066,7.066,0,0,1-.75-3.25,6.968,6.968,0,0,1,.75-3.25,5.67,5.67,0,0,1,2.15-2.325,6.1,6.1,0,0,1,3.3-.875,6.02,6.02,0,0,1,3.3.875,5.677,5.677,0,0,1,2.15,2.325,6.968,6.968,0,0,1,.75,3.25,7.066,7.066,0,0,1-.75,3.25,5.847,5.847,0,0,1-2.15,2.35A6.155,6.155,0,0,1,347.4,43.2Zm0-1.7a4.067,4.067,0,0,0,2.35-.65,4.126,4.126,0,0,0,1.475-1.725,5.677,5.677,0,0,0,.5-2.375,5.568,5.568,0,0,0-.5-2.375,4.126,4.126,0,0,0-1.475-1.725A4.067,4.067,0,0,0,347.4,32a4.025,4.025,0,0,0-3.825,2.375,5.553,5.553,0,0,0-.5,2.375,5.661,5.661,0,0,0,.5,2.375A4.025,4.025,0,0,0,347.4,41.5Zm13.736,1.7a6.73,6.73,0,0,1-2.925-.575,4.494,4.494,0,0,1-1.8-1.5,4.191,4.191,0,0,1-.7-2.05h1.95a3.174,3.174,0,0,0,.425,1.225,2.788,2.788,0,0,0,1.125.95,4.64,4.64,0,0,0,1.95.35,7.05,7.05,0,0,0,.925-.075,4.419,4.419,0,0,0,1.05-.275,2.162,2.162,0,0,0,.875-.6,1.5,1.5,0,0,0,.35-1.025,1.385,1.385,0,0,0-.6-1.2,4.437,4.437,0,0,0-1.55-.65q-.949-.25-2.025-.475a14.659,14.659,0,0,1-2-.575,4.137,4.137,0,0,1-1.55-1.025,2.647,2.647,0,0,1-.6-1.825,3.094,3.094,0,0,1,1.225-2.625,6.006,6.006,0,0,1,3.675-.95,5.875,5.875,0,0,1,2.675.525,3.748,3.748,0,0,1,1.575,1.3,3.71,3.71,0,0,1,.65,1.725h-1.9a2.08,2.08,0,0,0-.8-1.375,3.475,3.475,0,0,0-2.25-.575q-2.975,0-2.975,1.8a1.3,1.3,0,0,0,.6,1.15,5.167,5.167,0,0,0,1.55.65q.949.225,2,.45a10.947,10.947,0,0,1,2.025.575,3.871,3.871,0,0,1,1.55,1.075,2.686,2.686,0,0,1,.6,1.85,3.205,3.205,0,0,1-1.4,2.8A6.407,6.407,0,0,1,361.137,43.2Zm13.833,4.75V30.5h1.875v2a4.882,4.882,0,0,1,1.8-1.6,5.607,5.607,0,0,1,2.675-.6,5.815,5.815,0,0,1,5.3,3.2,6.968,6.968,0,0,1,.75,3.25,7.066,7.066,0,0,1-.75,3.25,5.909,5.909,0,0,1-2.125,2.35,5.834,5.834,0,0,1-3.175.85,5.607,5.607,0,0,1-2.675-.6,5.436,5.436,0,0,1-1.8-1.625V47.95Zm6.1-6.45a4.186,4.186,0,0,0,2.375-.65,4.243,4.243,0,0,0,1.525-1.725,5.442,5.442,0,0,0,.525-2.375,5.339,5.339,0,0,0-.525-2.375,4.243,4.243,0,0,0-1.525-1.725A4.186,4.186,0,0,0,381.07,32a4.025,4.025,0,0,0-3.825,2.375,5.553,5.553,0,0,0-.5,2.375,5.661,5.661,0,0,0,.5,2.375A4.025,4.025,0,0,0,381.07,41.5Zm14.543,1.7a5.632,5.632,0,0,1-5.3-3.2,7.066,7.066,0,0,1-.75-3.25,6.968,6.968,0,0,1,.75-3.25,5.743,5.743,0,0,1,5.3-3.2,5.461,5.461,0,0,1,2.65.6,5.054,5.054,0,0,1,1.825,1.625V30.5h1.875V43h-1.875V41a5.144,5.144,0,0,1-1.825,1.6A5.461,5.461,0,0,1,395.613,43.2Zm.25-1.7a4.065,4.065,0,0,0,2.35-.65,4.119,4.119,0,0,0,1.475-1.725,5.676,5.676,0,0,0,.5-2.375,5.567,5.567,0,0,0-.5-2.375,4.119,4.119,0,0,0-1.475-1.725,4.065,4.065,0,0,0-2.35-.65,4.168,4.168,0,0,0-3.9,2.375,5.339,5.339,0,0,0-.525,2.375,5.442,5.442,0,0,0,.525,2.375,4.168,4.168,0,0,0,3.9,2.375Zm.275-12.4a2.219,2.219,0,0,1-2.225-2.225,2.176,2.176,0,0,1,.65-1.6,2.144,2.144,0,0,1,1.575-.65,2.175,2.175,0,0,1,1.6.65,2.134,2.134,0,0,1,.675,1.6,2.106,2.106,0,0,1-.675,1.575A2.175,2.175,0,0,1,396.138,29.1Zm0-1.125a1.087,1.087,0,0,0,.8-.325,1.057,1.057,0,0,0,.325-.775,1.11,1.11,0,0,0-1.125-1.125,1.031,1.031,0,0,0-.75.325,1.086,1.086,0,0,0-.325.8,1.057,1.057,0,0,0,.325.775A1.031,1.031,0,0,0,396.138,27.975ZM411.928,43V26.45H413.8V41.2h9.025V43Zm13.355-14.6V25.95h2.025V28.4Zm.075,14.6V30.5h1.875V43Zm5.627,0V30.5h1.875v1.95a6.274,6.274,0,0,1,1.65-1.525,4.559,4.559,0,0,1,2.5-.625,4.912,4.912,0,0,1,2.425.625,4.524,4.524,0,0,1,1.85,1.825,5.655,5.655,0,0,1,.725,2.975V43h-1.875V35.775a3.79,3.79,0,0,0-.975-2.725A3.288,3.288,0,0,0,436.635,32a3.828,3.828,0,0,0-1.9.475,3.687,3.687,0,0,0-1.375,1.35,3.826,3.826,0,0,0-.5,1.975V43Zm14.661,0V25.5h1.875V36.7l6.025-6.2h2.625l-5.025,4.925,5.4,7.575h-2.3l-4.375-6.275-2.35,2.325V43Zm17.964.2a6.366,6.366,0,0,1-3.325-.85A6.15,6.15,0,0,1,458.06,40a6.875,6.875,0,0,1-.775-3.25,6.968,6.968,0,0,1,.75-3.25,5.67,5.67,0,0,1,2.15-2.325,6.1,6.1,0,0,1,3.3-.875,6.02,6.02,0,0,1,3.3.875,5.677,5.677,0,0,1,2.15,2.325,6.968,6.968,0,0,1,.75,3.25v.75H459.21a5.323,5.323,0,0,0,.7,2.025,4.379,4.379,0,0,0,1.525,1.45,4.472,4.472,0,0,0,2.2.525,4.053,4.053,0,0,0,2.225-.575,4.235,4.235,0,0,0,1.4-1.525h2.05a6.182,6.182,0,0,1-2.075,2.75A5.885,5.885,0,0,1,463.61,43.2Zm-4.375-7.45h8.5a4.637,4.637,0,0,0-1.35-2.675,4.449,4.449,0,0,0-5.8,0A4.835,4.835,0,0,0,459.235,35.75Zm18.516,7.45a5.632,5.632,0,0,1-5.3-3.2,7.066,7.066,0,0,1-.75-3.25,6.968,6.968,0,0,1,.75-3.25,5.743,5.743,0,0,1,5.3-3.2,5.464,5.464,0,0,1,2.65.6,5.054,5.054,0,0,1,1.825,1.625V25.5H484.1V43h-1.875V41a5.144,5.144,0,0,1-1.825,1.6A5.464,5.464,0,0,1,477.751,43.2Zm.25-1.7a4.067,4.067,0,0,0,2.35-.65,4.126,4.126,0,0,0,1.475-1.725,5.676,5.676,0,0,0,.5-2.375,5.567,5.567,0,0,0-.5-2.375,4.126,4.126,0,0,0-1.475-1.725A4.067,4.067,0,0,0,478,32a4.168,4.168,0,0,0-3.9,2.375,5.339,5.339,0,0,0-.525,2.375,5.442,5.442,0,0,0,.525,2.375A4.168,4.168,0,0,0,478,41.5ZM488.244,43V26.45h1.875V43Zm6.032,0V30.5h1.875v1.95a6.275,6.275,0,0,1,1.65-1.525,4.559,4.559,0,0,1,2.5-.625,4.912,4.912,0,0,1,2.425.625,4.524,4.524,0,0,1,1.85,1.825,5.655,5.655,0,0,1,.725,2.975V43h-1.875V35.775a3.79,3.79,0,0,0-.975-2.725A3.288,3.288,0,0,0,499.926,32a3.828,3.828,0,0,0-1.9.475,3.687,3.687,0,0,0-1.375,1.35,3.826,3.826,0,0,0-.5,1.975V43Z" fill="#fcf5e6"/>
    <path id="Path_791" data-name="Path 791" d="M875.475,43V32.15h-2.15V30.5h2.15V29.4a3.78,3.78,0,0,1,1.225-3.075,5.205,5.205,0,0,1,3.4-1.025h.15v1.775H880a2.885,2.885,0,0,0-1.975.6,2.338,2.338,0,0,0-.675,1.875v.95h2.9v1.65h-2.9V43Zm7.847.4.825-1.425a5.778,5.778,0,0,1-1.775-2.25,7.356,7.356,0,0,1-.6-2.975,6.968,6.968,0,0,1,.75-3.25,5.677,5.677,0,0,1,2.15-2.325,6.1,6.1,0,0,1,3.3-.875,6.694,6.694,0,0,1,2.6.5l.525-.925h1.85l-1.025,1.775a5.72,5.72,0,0,1,1.65,2.2,6.948,6.948,0,0,1,.6,2.9,7.066,7.066,0,0,1-.75,3.25,5.847,5.847,0,0,1-2.15,2.35,6.155,6.155,0,0,1-3.3.85,6.468,6.468,0,0,1-2.425-.45l-.375.65Zm.325-6.65a5.818,5.818,0,0,0,.35,2.025,4.714,4.714,0,0,0,1.05,1.625l4.65-8.075A4.536,4.536,0,0,0,887.972,32a4.025,4.025,0,0,0-3.825,2.375A5.568,5.568,0,0,0,883.647,36.75Zm4.325,4.75a4.065,4.065,0,0,0,2.35-.65,4.119,4.119,0,0,0,1.475-1.725,5.878,5.878,0,0,0,.175-4.3,4.536,4.536,0,0,0-.95-1.6l-4.6,8.025A4.581,4.581,0,0,0,887.972,41.5Zm9.186,1.5V25.5h1.875V43Zm11.352,5.15a6.563,6.563,0,0,1-3.825-1.025,4.943,4.943,0,0,1-2-2.625h2.075a2.77,2.77,0,0,0,1.3,1.425,4.717,4.717,0,0,0,2.35.525,4.149,4.149,0,0,0,3.125-1.025,3.962,3.962,0,0,0,1-2.925V40.775A5.378,5.378,0,0,1,910.71,42.4a5.461,5.461,0,0,1-2.65.6,6.1,6.1,0,0,1-3.2-.825,5.828,5.828,0,0,1-2.1-2.3,6.914,6.914,0,0,1-.75-3.225,6.818,6.818,0,0,1,.75-3.225,5.65,5.65,0,0,1,2.1-2.275,5.96,5.96,0,0,1,3.2-.85,5.461,5.461,0,0,1,2.65.6,4.841,4.841,0,0,1,1.825,1.6v-2h1.875V42.625a5.292,5.292,0,0,1-1.55,4.1A6.136,6.136,0,0,1,908.51,48.15Zm-.2-6.85a4.137,4.137,0,0,0,2.325-.625A3.986,3.986,0,0,0,912.11,39a5.282,5.282,0,0,0,.525-2.35,5.181,5.181,0,0,0-.525-2.35,3.986,3.986,0,0,0-1.475-1.675A4.137,4.137,0,0,0,908.31,32a4.389,4.389,0,0,0-2.375.625A4.1,4.1,0,0,0,904.41,34.3a5.182,5.182,0,0,0-.525,2.35A5.283,5.283,0,0,0,904.41,39a4.1,4.1,0,0,0,1.525,1.675A4.389,4.389,0,0,0,908.31,41.3ZM929.4,43.2a6.233,6.233,0,0,1-3.3-.85,5.84,5.84,0,0,1-2.15-2.35,7.066,7.066,0,0,1-.75-3.25,6.968,6.968,0,0,1,.75-3.25,5.67,5.67,0,0,1,2.15-2.325,6.1,6.1,0,0,1,3.3-.875,6.02,6.02,0,0,1,3.3.875,5.677,5.677,0,0,1,2.15,2.325,6.968,6.968,0,0,1,.75,3.25,7.066,7.066,0,0,1-.75,3.25,5.847,5.847,0,0,1-2.15,2.35A6.155,6.155,0,0,1,929.4,43.2Zm0-1.7a4.067,4.067,0,0,0,2.35-.65,4.126,4.126,0,0,0,1.475-1.725,5.676,5.676,0,0,0,.5-2.375,5.567,5.567,0,0,0-.5-2.375,4.126,4.126,0,0,0-1.475-1.725A4.067,4.067,0,0,0,929.4,32a4.025,4.025,0,0,0-3.825,2.375,5.553,5.553,0,0,0-.5,2.375,5.661,5.661,0,0,0,.5,2.375A4.025,4.025,0,0,0,929.4,41.5Zm13.736,1.7a6.731,6.731,0,0,1-2.925-.575,4.5,4.5,0,0,1-1.8-1.5,4.192,4.192,0,0,1-.7-2.05h1.95a3.174,3.174,0,0,0,.425,1.225,2.788,2.788,0,0,0,1.125.95,4.64,4.64,0,0,0,1.95.35,7.049,7.049,0,0,0,.925-.075,4.42,4.42,0,0,0,1.05-.275,2.163,2.163,0,0,0,.875-.6,1.5,1.5,0,0,0,.35-1.025,1.385,1.385,0,0,0-.6-1.2,4.438,4.438,0,0,0-1.55-.65q-.949-.25-2.025-.475a14.659,14.659,0,0,1-2-.575,4.137,4.137,0,0,1-1.55-1.025,2.647,2.647,0,0,1-.6-1.825,3.094,3.094,0,0,1,1.225-2.625,6.006,6.006,0,0,1,3.675-.95,5.875,5.875,0,0,1,2.675.525,3.748,3.748,0,0,1,1.575,1.3,3.709,3.709,0,0,1,.65,1.725h-1.9a2.08,2.08,0,0,0-.8-1.375,3.475,3.475,0,0,0-2.25-.575q-2.975,0-2.975,1.8a1.3,1.3,0,0,0,.6,1.15,5.167,5.167,0,0,0,1.55.65q.949.225,2,.45a10.947,10.947,0,0,1,2.025.575,3.871,3.871,0,0,1,1.55,1.075,2.686,2.686,0,0,1,.6,1.85,3.205,3.205,0,0,1-1.4,2.8A6.406,6.406,0,0,1,943.137,43.2Zm13.833,4.75V30.5h1.875v2a4.882,4.882,0,0,1,1.8-1.6,5.607,5.607,0,0,1,2.675-.6,5.815,5.815,0,0,1,5.3,3.2,6.968,6.968,0,0,1,.75,3.25,7.066,7.066,0,0,1-.75,3.25,5.909,5.909,0,0,1-2.125,2.35,5.835,5.835,0,0,1-3.175.85,5.607,5.607,0,0,1-2.675-.6,5.436,5.436,0,0,1-1.8-1.625V47.95Zm6.1-6.45a4.186,4.186,0,0,0,2.375-.65,4.242,4.242,0,0,0,1.525-1.725,5.442,5.442,0,0,0,.525-2.375,5.338,5.338,0,0,0-.525-2.375,4.242,4.242,0,0,0-1.525-1.725A4.186,4.186,0,0,0,963.07,32a4.025,4.025,0,0,0-3.825,2.375,5.553,5.553,0,0,0-.5,2.375,5.661,5.661,0,0,0,.5,2.375A4.025,4.025,0,0,0,963.07,41.5Zm14.543,1.7a5.632,5.632,0,0,1-5.3-3.2,7.066,7.066,0,0,1-.75-3.25,6.968,6.968,0,0,1,.75-3.25,5.743,5.743,0,0,1,5.3-3.2,5.461,5.461,0,0,1,2.65.6,5.054,5.054,0,0,1,1.825,1.625V30.5h1.875V43h-1.875V41a5.145,5.145,0,0,1-1.825,1.6A5.461,5.461,0,0,1,977.613,43.2Zm.25-1.7a4.065,4.065,0,0,0,2.35-.65,4.119,4.119,0,0,0,1.475-1.725,5.676,5.676,0,0,0,.5-2.375,5.567,5.567,0,0,0-.5-2.375,4.119,4.119,0,0,0-1.475-1.725,4.065,4.065,0,0,0-2.35-.65,4.168,4.168,0,0,0-3.9,2.375,5.338,5.338,0,0,0-.525,2.375,5.442,5.442,0,0,0,.525,2.375,4.168,4.168,0,0,0,3.9,2.375Zm.275-12.4a2.219,2.219,0,0,1-2.225-2.225,2.176,2.176,0,0,1,.65-1.6,2.144,2.144,0,0,1,1.575-.65,2.175,2.175,0,0,1,1.6.65,2.134,2.134,0,0,1,.675,1.6,2.106,2.106,0,0,1-.675,1.575A2.175,2.175,0,0,1,978.138,29.1Zm0-1.125a1.087,1.087,0,0,0,.8-.325,1.057,1.057,0,0,0,.325-.775,1.11,1.11,0,0,0-1.125-1.125,1.031,1.031,0,0,0-.75.325,1.086,1.086,0,0,0-.325.8,1.057,1.057,0,0,0,.325.775A1.031,1.031,0,0,0,978.138,27.975ZM993.928,43V26.45H995.8V41.2h9.027V43Zm13.352-14.6V25.95h2.03V28.4Zm.08,14.6V30.5h1.87V43Zm5.63,0V30.5h1.87v1.95a6.274,6.274,0,0,1,1.65-1.525,4.549,4.549,0,0,1,2.5-.625,4.923,4.923,0,0,1,2.43.625,4.59,4.59,0,0,1,1.85,1.825,5.692,5.692,0,0,1,.72,2.975V43h-1.87V35.775a3.793,3.793,0,0,0-.98-2.725,3.283,3.283,0,0,0-2.52-1.05,3.809,3.809,0,0,0-1.9.475,3.671,3.671,0,0,0-1.38,1.35,3.856,3.856,0,0,0-.5,1.975V43Zm14.66,0V25.5h1.87V36.7l6.03-6.2h2.62l-5.02,4.925,5.4,7.575h-2.3l-4.38-6.275-2.35,2.325V43Zm17.96.2a6.376,6.376,0,0,1-3.33-.85,6.114,6.114,0,0,1-2.22-2.35,6.843,6.843,0,0,1-.78-3.25,6.968,6.968,0,0,1,.75-3.25,5.7,5.7,0,0,1,2.15-2.325,6.129,6.129,0,0,1,3.3-.875,5.987,5.987,0,0,1,3.3.875,5.631,5.631,0,0,1,2.15,2.325,6.968,6.968,0,0,1,.75,3.25v.75h-10.47a5.274,5.274,0,0,0,.7,2.025,4.373,4.373,0,0,0,1.52,1.45,4.5,4.5,0,0,0,2.2.525,4.055,4.055,0,0,0,2.23-.575,4.2,4.2,0,0,0,1.4-1.525h2.05a6.164,6.164,0,0,1-2.08,2.75A5.867,5.867,0,0,1,1045.61,43.2Zm-4.38-7.45h8.5a4.557,4.557,0,0,0-1.35-2.675,4.449,4.449,0,0,0-5.8,0A4.928,4.928,0,0,0,1041.23,35.75Zm18.52,7.45a5.633,5.633,0,0,1-5.3-3.2,7.066,7.066,0,0,1-.75-3.25,6.968,6.968,0,0,1,.75-3.25,5.743,5.743,0,0,1,5.3-3.2,5.461,5.461,0,0,1,2.65.6,5.093,5.093,0,0,1,1.83,1.625V25.5h1.87V43h-1.87V41a5.186,5.186,0,0,1-1.83,1.6A5.461,5.461,0,0,1,1059.75,43.2Zm.25-1.7a4.065,4.065,0,0,0,2.35-.65,4.18,4.18,0,0,0,1.48-1.725,5.722,5.722,0,0,0,.5-2.375,5.611,5.611,0,0,0-.5-2.375,4.18,4.18,0,0,0-1.48-1.725A4.065,4.065,0,0,0,1060,32a4.182,4.182,0,0,0-3.9,2.375,5.336,5.336,0,0,0-.52,2.375,5.439,5.439,0,0,0,.52,2.375A4.182,4.182,0,0,0,1060,41.5Zm10.24,1.5V26.45h1.88V43Zm6.04,0V30.5h1.87v1.95a6.273,6.273,0,0,1,1.65-1.525,4.549,4.549,0,0,1,2.5-.625,4.922,4.922,0,0,1,2.43.625,4.59,4.59,0,0,1,1.85,1.825,5.691,5.691,0,0,1,.72,2.975V43h-1.87V35.775a3.793,3.793,0,0,0-.98-2.725,3.282,3.282,0,0,0-2.52-1.05,3.809,3.809,0,0,0-1.9.475,3.67,3.67,0,0,0-1.38,1.35,3.855,3.855,0,0,0-.5,1.975V43Z" fill="#fcf5e6"/>
    <path id="Path_792" data-name="Path 792" d="M572.475,43V32.15h-2.15V30.5h2.15V29.4a3.78,3.78,0,0,1,1.225-3.075,5.205,5.205,0,0,1,3.4-1.025h.15v1.775H577a2.885,2.885,0,0,0-1.975.6,2.338,2.338,0,0,0-.675,1.875v.95h2.9v1.65h-2.9V43Zm7.847.4.825-1.425a5.778,5.778,0,0,1-1.775-2.25,7.356,7.356,0,0,1-.6-2.975,6.968,6.968,0,0,1,.75-3.25,5.677,5.677,0,0,1,2.15-2.325,6.1,6.1,0,0,1,3.3-.875,6.694,6.694,0,0,1,2.6.5l.525-.925h1.85l-1.025,1.775a5.72,5.72,0,0,1,1.65,2.2,6.948,6.948,0,0,1,.6,2.9,7.066,7.066,0,0,1-.75,3.25,5.847,5.847,0,0,1-2.15,2.35,6.155,6.155,0,0,1-3.3.85,6.468,6.468,0,0,1-2.425-.45l-.375.65Zm.325-6.65a5.818,5.818,0,0,0,.35,2.025,4.714,4.714,0,0,0,1.05,1.625l4.65-8.075A4.536,4.536,0,0,0,584.972,32a4.025,4.025,0,0,0-3.825,2.375A5.568,5.568,0,0,0,580.647,36.75Zm4.325,4.75a4.065,4.065,0,0,0,2.35-.65,4.119,4.119,0,0,0,1.475-1.725,5.878,5.878,0,0,0,.175-4.3,4.536,4.536,0,0,0-.95-1.6l-4.6,8.025A4.581,4.581,0,0,0,584.972,41.5Zm9.186,1.5V25.5h1.875V43Zm11.352,5.15a6.563,6.563,0,0,1-3.825-1.025,4.943,4.943,0,0,1-2-2.625h2.075a2.77,2.77,0,0,0,1.3,1.425,4.717,4.717,0,0,0,2.35.525,4.149,4.149,0,0,0,3.125-1.025,3.962,3.962,0,0,0,1-2.925V40.775A5.378,5.378,0,0,1,607.71,42.4a5.461,5.461,0,0,1-2.65.6,6.1,6.1,0,0,1-3.2-.825,5.828,5.828,0,0,1-2.1-2.3,6.914,6.914,0,0,1-.75-3.225,6.818,6.818,0,0,1,.75-3.225,5.65,5.65,0,0,1,2.1-2.275,5.96,5.96,0,0,1,3.2-.85,5.461,5.461,0,0,1,2.65.6,4.841,4.841,0,0,1,1.825,1.6v-2h1.875V42.625a5.292,5.292,0,0,1-1.55,4.1A6.136,6.136,0,0,1,605.51,48.15Zm-.2-6.85a4.137,4.137,0,0,0,2.325-.625A3.986,3.986,0,0,0,609.11,39a5.282,5.282,0,0,0,.525-2.35,5.181,5.181,0,0,0-.525-2.35,3.986,3.986,0,0,0-1.475-1.675A4.137,4.137,0,0,0,605.31,32a4.389,4.389,0,0,0-2.375.625A4.1,4.1,0,0,0,601.41,34.3a5.182,5.182,0,0,0-.525,2.35A5.283,5.283,0,0,0,601.41,39a4.1,4.1,0,0,0,1.525,1.675A4.389,4.389,0,0,0,605.31,41.3ZM626.4,43.2a6.233,6.233,0,0,1-3.3-.85,5.84,5.84,0,0,1-2.15-2.35,7.066,7.066,0,0,1-.75-3.25,6.968,6.968,0,0,1,.75-3.25,5.67,5.67,0,0,1,2.15-2.325,6.1,6.1,0,0,1,3.3-.875,6.02,6.02,0,0,1,3.3.875,5.677,5.677,0,0,1,2.15,2.325,6.968,6.968,0,0,1,.75,3.25,7.066,7.066,0,0,1-.75,3.25,5.847,5.847,0,0,1-2.15,2.35A6.155,6.155,0,0,1,626.4,43.2Zm0-1.7a4.067,4.067,0,0,0,2.35-.65,4.126,4.126,0,0,0,1.475-1.725,5.676,5.676,0,0,0,.5-2.375,5.567,5.567,0,0,0-.5-2.375,4.126,4.126,0,0,0-1.475-1.725A4.067,4.067,0,0,0,626.4,32a4.025,4.025,0,0,0-3.825,2.375,5.553,5.553,0,0,0-.5,2.375,5.661,5.661,0,0,0,.5,2.375A4.025,4.025,0,0,0,626.4,41.5Zm13.736,1.7a6.731,6.731,0,0,1-2.925-.575,4.5,4.5,0,0,1-1.8-1.5,4.192,4.192,0,0,1-.7-2.05h1.95a3.174,3.174,0,0,0,.425,1.225,2.788,2.788,0,0,0,1.125.95,4.64,4.64,0,0,0,1.95.35,7.049,7.049,0,0,0,.925-.075,4.42,4.42,0,0,0,1.05-.275,2.163,2.163,0,0,0,.875-.6,1.5,1.5,0,0,0,.35-1.025,1.385,1.385,0,0,0-.6-1.2,4.438,4.438,0,0,0-1.55-.65q-.949-.25-2.025-.475a14.659,14.659,0,0,1-2-.575,4.137,4.137,0,0,1-1.55-1.025,2.647,2.647,0,0,1-.6-1.825,3.094,3.094,0,0,1,1.225-2.625,6.006,6.006,0,0,1,3.675-.95,5.875,5.875,0,0,1,2.675.525,3.748,3.748,0,0,1,1.575,1.3,3.709,3.709,0,0,1,.65,1.725h-1.9a2.08,2.08,0,0,0-.8-1.375,3.475,3.475,0,0,0-2.25-.575q-2.975,0-2.975,1.8a1.3,1.3,0,0,0,.6,1.15,5.167,5.167,0,0,0,1.55.65q.949.225,2,.45a10.947,10.947,0,0,1,2.025.575,3.871,3.871,0,0,1,1.55,1.075,2.686,2.686,0,0,1,.6,1.85,3.205,3.205,0,0,1-1.4,2.8A6.406,6.406,0,0,1,640.137,43.2Zm13.833,4.75V30.5h1.875v2a4.882,4.882,0,0,1,1.8-1.6,5.607,5.607,0,0,1,2.675-.6,5.815,5.815,0,0,1,5.3,3.2,6.968,6.968,0,0,1,.75,3.25,7.066,7.066,0,0,1-.75,3.25,5.909,5.909,0,0,1-2.125,2.35,5.835,5.835,0,0,1-3.175.85,5.607,5.607,0,0,1-2.675-.6,5.436,5.436,0,0,1-1.8-1.625V47.95Zm6.1-6.45a4.186,4.186,0,0,0,2.375-.65,4.242,4.242,0,0,0,1.525-1.725,5.442,5.442,0,0,0,.525-2.375,5.338,5.338,0,0,0-.525-2.375,4.242,4.242,0,0,0-1.525-1.725A4.186,4.186,0,0,0,660.07,32a4.025,4.025,0,0,0-3.825,2.375,5.553,5.553,0,0,0-.5,2.375,5.661,5.661,0,0,0,.5,2.375A4.025,4.025,0,0,0,660.07,41.5Zm14.543,1.7a5.632,5.632,0,0,1-5.3-3.2,7.066,7.066,0,0,1-.75-3.25,6.968,6.968,0,0,1,.75-3.25,5.743,5.743,0,0,1,5.3-3.2,5.461,5.461,0,0,1,2.65.6,5.054,5.054,0,0,1,1.825,1.625V30.5h1.875V43h-1.875V41a5.145,5.145,0,0,1-1.825,1.6A5.461,5.461,0,0,1,674.613,43.2Zm.25-1.7a4.065,4.065,0,0,0,2.35-.65,4.119,4.119,0,0,0,1.475-1.725,5.676,5.676,0,0,0,.5-2.375,5.567,5.567,0,0,0-.5-2.375,4.119,4.119,0,0,0-1.475-1.725,4.065,4.065,0,0,0-2.35-.65,4.168,4.168,0,0,0-3.9,2.375,5.338,5.338,0,0,0-.525,2.375,5.442,5.442,0,0,0,.525,2.375,4.168,4.168,0,0,0,3.9,2.375Zm.275-12.4a2.219,2.219,0,0,1-2.225-2.225,2.176,2.176,0,0,1,.65-1.6,2.144,2.144,0,0,1,1.575-.65,2.175,2.175,0,0,1,1.6.65,2.134,2.134,0,0,1,.675,1.6,2.106,2.106,0,0,1-.675,1.575A2.175,2.175,0,0,1,675.138,29.1Zm0-1.125a1.087,1.087,0,0,0,.8-.325,1.057,1.057,0,0,0,.325-.775,1.11,1.11,0,0,0-1.125-1.125,1.031,1.031,0,0,0-.75.325,1.086,1.086,0,0,0-.325.8,1.057,1.057,0,0,0,.325.775A1.031,1.031,0,0,0,675.138,27.975ZM690.928,43V26.45H692.8V43Zm6.033,0V30.5h1.875v1.95a6.274,6.274,0,0,1,1.65-1.525,4.556,4.556,0,0,1,2.5-.625,4.912,4.912,0,0,1,2.425.625,4.53,4.53,0,0,1,1.85,1.825,5.664,5.664,0,0,1,.725,2.975V43h-1.875V35.775a3.79,3.79,0,0,0-.975-2.725A3.289,3.289,0,0,0,702.611,32a3.828,3.828,0,0,0-1.9.475,3.68,3.68,0,0,0-1.375,1.35,3.826,3.826,0,0,0-.5,1.975V43Zm19.21.2a6.731,6.731,0,0,1-2.925-.575,4.5,4.5,0,0,1-1.8-1.5,4.192,4.192,0,0,1-.7-2.05h1.95a3.174,3.174,0,0,0,.425,1.225,2.788,2.788,0,0,0,1.125.95,4.64,4.64,0,0,0,1.95.35,7.049,7.049,0,0,0,.925-.075,4.42,4.42,0,0,0,1.05-.275,2.163,2.163,0,0,0,.875-.6,1.5,1.5,0,0,0,.35-1.025,1.385,1.385,0,0,0-.6-1.2,4.437,4.437,0,0,0-1.55-.65q-.949-.25-2.025-.475a14.659,14.659,0,0,1-2-.575,4.137,4.137,0,0,1-1.55-1.025,2.647,2.647,0,0,1-.6-1.825A3.094,3.094,0,0,1,712.3,31.25a6.006,6.006,0,0,1,3.675-.95,5.875,5.875,0,0,1,2.675.525,3.748,3.748,0,0,1,1.575,1.3,3.709,3.709,0,0,1,.65,1.725h-1.9a2.08,2.08,0,0,0-.8-1.375,3.475,3.475,0,0,0-2.25-.575q-2.975,0-2.975,1.8a1.3,1.3,0,0,0,.6,1.15,5.167,5.167,0,0,0,1.55.65q.949.225,2,.45a10.947,10.947,0,0,1,2.025.575,3.871,3.871,0,0,1,1.55,1.075,2.686,2.686,0,0,1,.6,1.85,3.205,3.205,0,0,1-1.4,2.8A6.406,6.406,0,0,1,716.171,43.2Zm9.361-.2V32.15h-2.55V30.5h2.55V26.025h1.875V30.5h2.875v1.65h-2.875V43Zm12.335.2a5.632,5.632,0,0,1-5.3-3.2,7.066,7.066,0,0,1-.75-3.25,6.968,6.968,0,0,1,.75-3.25,5.743,5.743,0,0,1,5.3-3.2,5.464,5.464,0,0,1,2.65.6,5.053,5.053,0,0,1,1.825,1.625V30.5h1.875V43h-1.875V41a5.144,5.144,0,0,1-1.825,1.6A5.464,5.464,0,0,1,737.867,43.2Zm.25-1.7a4.067,4.067,0,0,0,2.35-.65,4.126,4.126,0,0,0,1.475-1.725,5.676,5.676,0,0,0,.5-2.375,5.567,5.567,0,0,0-.5-2.375,4.126,4.126,0,0,0-1.475-1.725,4.067,4.067,0,0,0-2.35-.65,4.168,4.168,0,0,0-3.9,2.375,5.339,5.339,0,0,0-.525,2.375,5.443,5.443,0,0,0,.525,2.375,4.168,4.168,0,0,0,3.9,2.375Zm15.568,6.65a6.563,6.563,0,0,1-3.825-1.025,4.943,4.943,0,0,1-2-2.625h2.075a2.77,2.77,0,0,0,1.3,1.425,4.717,4.717,0,0,0,2.35.525,4.149,4.149,0,0,0,3.125-1.025,3.962,3.962,0,0,0,1-2.925V40.775a5.379,5.379,0,0,1-1.825,1.625,5.461,5.461,0,0,1-2.65.6,6.1,6.1,0,0,1-3.2-.825,5.828,5.828,0,0,1-2.1-2.3,6.914,6.914,0,0,1-.75-3.225,6.818,6.818,0,0,1,.75-3.225,5.65,5.65,0,0,1,2.1-2.275,5.961,5.961,0,0,1,3.2-.85,5.461,5.461,0,0,1,2.65.6,4.842,4.842,0,0,1,1.825,1.6v-2h1.875V42.625a5.292,5.292,0,0,1-1.55,4.1A6.136,6.136,0,0,1,753.685,48.15Zm-.2-6.85a4.137,4.137,0,0,0,2.325-.625A3.985,3.985,0,0,0,757.285,39a5.282,5.282,0,0,0,.525-2.35,5.181,5.181,0,0,0-.525-2.35,3.985,3.985,0,0,0-1.475-1.675A4.137,4.137,0,0,0,753.485,32a4.389,4.389,0,0,0-2.375.625,4.1,4.1,0,0,0-1.525,1.675,5.181,5.181,0,0,0-.525,2.35,5.282,5.282,0,0,0,.525,2.35,4.1,4.1,0,0,0,1.525,1.675A4.389,4.389,0,0,0,753.485,41.3Zm9.843,1.7V30.5H765.2v3.075a5.41,5.41,0,0,1,.375-.85,4.885,4.885,0,0,1,.85-1.1A4.714,4.714,0,0,1,769.8,30.3h.125v1.875H769.7a3.906,3.906,0,0,0-2.425.775,4.948,4.948,0,0,0-1.55,1.975A6.353,6.353,0,0,0,765.2,37.5V43Zm14.076.2a5.632,5.632,0,0,1-5.3-3.2,7.066,7.066,0,0,1-.75-3.25,6.968,6.968,0,0,1,.75-3.25,5.743,5.743,0,0,1,5.3-3.2,5.461,5.461,0,0,1,2.65.6,5.054,5.054,0,0,1,1.825,1.625V30.5h1.875V43h-1.875V41a5.145,5.145,0,0,1-1.825,1.6A5.461,5.461,0,0,1,777.4,43.2Zm.25-1.7a4.065,4.065,0,0,0,2.35-.65,4.119,4.119,0,0,0,1.475-1.725,5.676,5.676,0,0,0,.5-2.375,5.567,5.567,0,0,0-.5-2.375A4.119,4.119,0,0,0,780,32.65a4.065,4.065,0,0,0-2.35-.65,4.168,4.168,0,0,0-3.9,2.375,5.338,5.338,0,0,0-.525,2.375,5.442,5.442,0,0,0,.525,2.375,4.168,4.168,0,0,0,3.9,2.375ZM787.5,43V30.5h1.875v1.9a4.666,4.666,0,0,1,1.35-1.425,4.064,4.064,0,0,1,2.45-.675,4.169,4.169,0,0,1,2.3.675,4.4,4.4,0,0,1,1.675,1.85,7.2,7.2,0,0,1,.775-1.025,5.033,5.033,0,0,1,1.425-1.05,4.54,4.54,0,0,1,2.1-.45,4.325,4.325,0,0,1,2.25.625,4.664,4.664,0,0,1,1.7,1.8,5.288,5.288,0,0,1,.675,2.725V43H804.2V35.5a3.52,3.52,0,0,0-.9-2.525A2.831,2.831,0,0,0,801.1,32a3.3,3.3,0,0,0-3.375,3.525V43h-1.875V35.5a3.52,3.52,0,0,0-.9-2.525,2.831,2.831,0,0,0-2.2-.975,3.3,3.3,0,0,0-3.375,3.525V43Z" fill="#fcf5e6"/>
    <path id="Path_793" data-name="Path 793" d="M1155.48,43V32.15h-2.15V30.5h2.15V29.4a3.769,3.769,0,0,1,1.22-3.075,5.206,5.206,0,0,1,3.4-1.025h.15v1.775H1160a2.866,2.866,0,0,0-1.97.6,2.34,2.34,0,0,0-.68,1.875v.95h2.9v1.65h-2.9V43Zm7.84.4.83-1.425a5.79,5.79,0,0,1-1.78-2.25,7.356,7.356,0,0,1-.6-2.975,6.968,6.968,0,0,1,.75-3.25,5.7,5.7,0,0,1,2.15-2.325,6.129,6.129,0,0,1,3.3-.875,6.668,6.668,0,0,1,2.6.5l.53-.925h1.85l-1.03,1.775a5.661,5.661,0,0,1,1.65,2.2,6.947,6.947,0,0,1,.6,2.9,7.066,7.066,0,0,1-.75,3.25,5.8,5.8,0,0,1-2.15,2.35,6.121,6.121,0,0,1-3.3.85,6.468,6.468,0,0,1-2.42-.45l-.38.65Zm.33-6.65a5.661,5.661,0,0,0,.35,2.025,4.713,4.713,0,0,0,1.05,1.625l4.65-8.075a4.576,4.576,0,0,0-1.73-.325,4.154,4.154,0,0,0-2.35.65,4.086,4.086,0,0,0-1.47,1.725A5.466,5.466,0,0,0,1163.65,36.75Zm4.32,4.75a4.043,4.043,0,0,0,2.35-.65,4.181,4.181,0,0,0,1.48-1.725,5.613,5.613,0,0,0,.5-2.375,5.549,5.549,0,0,0-.33-1.925,4.394,4.394,0,0,0-.95-1.6l-4.6,8.025A4.622,4.622,0,0,0,1167.97,41.5Zm9.19,1.5V25.5h1.87V43Zm11.35,5.15a6.534,6.534,0,0,1-3.82-1.025,4.909,4.909,0,0,1-2-2.625h2.07a2.757,2.757,0,0,0,1.3,1.425,4.724,4.724,0,0,0,2.35.525,4.167,4.167,0,0,0,3.13-1.025,3.992,3.992,0,0,0,1-2.925V40.775A5.184,5.184,0,0,1,1188.06,43a6.1,6.1,0,0,1-3.2-.825,5.827,5.827,0,0,1-2.1-2.3,6.914,6.914,0,0,1-.75-3.225,6.818,6.818,0,0,1,.75-3.225,5.649,5.649,0,0,1,2.1-2.275,5.961,5.961,0,0,1,3.2-.85,5.461,5.461,0,0,1,2.65.6,4.88,4.88,0,0,1,1.83,1.6v-2h1.87V42.625a5.3,5.3,0,0,1-1.55,4.1A6.146,6.146,0,0,1,1188.51,48.15Zm-.2-6.85a4.163,4.163,0,0,0,2.33-.625A3.953,3.953,0,0,0,1192.11,39a5.286,5.286,0,0,0,.53-2.35,5.184,5.184,0,0,0-.53-2.35,3.953,3.953,0,0,0-1.47-1.675,4.163,4.163,0,0,0-2.33-.625,4.348,4.348,0,0,0-2.37.625,4.1,4.1,0,0,0-1.53,1.675,5.179,5.179,0,0,0-.52,2.35,5.28,5.28,0,0,0,.52,2.35,4.1,4.1,0,0,0,1.53,1.675A4.348,4.348,0,0,0,1188.31,41.3Zm21.09,1.9a6.218,6.218,0,0,1-3.3-.85,5.869,5.869,0,0,1-2.15-2.35,7.066,7.066,0,0,1-.75-3.25,6.968,6.968,0,0,1,.75-3.25,5.7,5.7,0,0,1,2.15-2.325,6.66,6.66,0,0,1,6.6,0,5.7,5.7,0,0,1,2.15,2.325,6.968,6.968,0,0,1,.75,3.25,7.066,7.066,0,0,1-.75,3.25,5.868,5.868,0,0,1-2.15,2.35A6.169,6.169,0,0,1,1209.4,43.2Zm0-1.7a4.065,4.065,0,0,0,2.35-.65,4.18,4.18,0,0,0,1.48-1.725,5.722,5.722,0,0,0,.5-2.375,5.611,5.611,0,0,0-.5-2.375,4.18,4.18,0,0,0-1.48-1.725,4.065,4.065,0,0,0-2.35-.65,4.131,4.131,0,0,0-2.35.65,4.087,4.087,0,0,0-1.47,1.725,5.466,5.466,0,0,0-.5,2.375,5.57,5.57,0,0,0,.5,2.375,4.087,4.087,0,0,0,1.47,1.725A4.131,4.131,0,0,0,1209.4,41.5Zm13.74,1.7a6.754,6.754,0,0,1-2.93-.575,4.535,4.535,0,0,1-1.8-1.5,4.263,4.263,0,0,1-.7-2.05h1.95a3.071,3.071,0,0,0,.43,1.225,2.772,2.772,0,0,0,1.12.95,4.641,4.641,0,0,0,1.95.35,7.155,7.155,0,0,0,.93-.075,4.6,4.6,0,0,0,1.05-.275,2.125,2.125,0,0,0,.87-.6,1.468,1.468,0,0,0,.35-1.025,1.385,1.385,0,0,0-.6-1.2,4.381,4.381,0,0,0-1.55-.65c-.63-.167-1.31-.325-2.02-.475a14.539,14.539,0,0,1-2-.575,4.083,4.083,0,0,1-1.55-1.025,2.647,2.647,0,0,1-.6-1.825,3.109,3.109,0,0,1,1.22-2.625,6.031,6.031,0,0,1,3.68-.95,5.843,5.843,0,0,1,2.67.525,3.763,3.763,0,0,1,1.58,1.3,3.82,3.82,0,0,1,.65,1.725h-1.9a2.12,2.12,0,0,0-.8-1.375,3.475,3.475,0,0,0-2.25-.575c-1.99,0-2.98.6-2.98,1.8a1.3,1.3,0,0,0,.6,1.15,5.2,5.2,0,0,0,1.55.65c.64.15,1.3.3,2,.45a11.089,11.089,0,0,1,2.03.575,3.892,3.892,0,0,1,1.55,1.075,2.686,2.686,0,0,1,.6,1.85,3.212,3.212,0,0,1-1.4,2.8A6.413,6.413,0,0,1,1223.14,43.2Zm13.83,4.75V30.5h1.87v2a4.946,4.946,0,0,1,1.8-1.6,6.227,6.227,0,0,1,5.85.275,5.717,5.717,0,0,1,2.13,2.325,6.968,6.968,0,0,1,.75,3.25,7.066,7.066,0,0,1-.75,3.25,5.891,5.891,0,0,1-2.13,2.35,5.808,5.808,0,0,1-3.17.85,5.639,5.639,0,0,1-2.68-.6,5.517,5.517,0,0,1-1.8-1.625V47.95Zm6.1-6.45a4.175,4.175,0,0,0,2.37-.65,4.226,4.226,0,0,0,1.53-1.725,5.439,5.439,0,0,0,.52-2.375,5.336,5.336,0,0,0-.52-2.375,4.226,4.226,0,0,0-1.53-1.725,4.175,4.175,0,0,0-2.37-.65,4.132,4.132,0,0,0-2.35.65,4.18,4.18,0,0,0-1.48,1.725,5.613,5.613,0,0,0-.5,2.375,5.724,5.724,0,0,0,.5,2.375,4.18,4.18,0,0,0,1.48,1.725A4.132,4.132,0,0,0,1243.07,41.5Zm14.54,1.7a5.632,5.632,0,0,1-5.3-3.2,7.066,7.066,0,0,1-.75-3.25,6.968,6.968,0,0,1,.75-3.25,5.787,5.787,0,0,1,2.1-2.325,5.855,5.855,0,0,1,3.2-.875,5.434,5.434,0,0,1,2.65.6,5.093,5.093,0,0,1,1.83,1.625V30.5h1.87V43h-1.87V41a5.186,5.186,0,0,1-1.83,1.6A5.434,5.434,0,0,1,1257.61,43.2Zm.25-1.7a4.043,4.043,0,0,0,2.35-.65,4.18,4.18,0,0,0,1.48-1.725,5.722,5.722,0,0,0,.5-2.375,5.611,5.611,0,0,0-.5-2.375,4.18,4.18,0,0,0-1.48-1.725,4.043,4.043,0,0,0-2.35-.65,4.182,4.182,0,0,0-3.9,2.375,5.336,5.336,0,0,0-.52,2.375,5.439,5.439,0,0,0,.52,2.375,4.182,4.182,0,0,0,3.9,2.375Zm.28-12.4a2.219,2.219,0,0,1-2.23-2.225,2.187,2.187,0,0,1,.65-1.6,2.161,2.161,0,0,1,1.58-.65,2.191,2.191,0,0,1,1.6.65,2.13,2.13,0,0,1,.67,1.6,2.1,2.1,0,0,1-.67,1.575A2.191,2.191,0,0,1,1258.14,29.1Zm0-1.125a1.1,1.1,0,0,0,.8-.325,1.079,1.079,0,0,0,.32-.775,1.1,1.1,0,0,0-1.12-1.125,1.009,1.009,0,0,0-.75.325,1.079,1.079,0,0,0-.33.8,1.05,1.05,0,0,0,.33.775A1.009,1.009,0,0,0,1258.14,27.975ZM1273.93,43V26.45h1.87V43Zm6.03,0V30.5h1.88v1.95a6.275,6.275,0,0,1,1.65-1.525,4.549,4.549,0,0,1,2.5-.625,4.913,4.913,0,0,1,2.42.625,4.53,4.53,0,0,1,1.85,1.825,5.693,5.693,0,0,1,.73,2.975V43h-1.88V35.775a3.787,3.787,0,0,0-.97-2.725,3.3,3.3,0,0,0-2.53-1.05,3.837,3.837,0,0,0-1.9.475,3.646,3.646,0,0,0-1.37,1.35,3.76,3.76,0,0,0-.5,1.975V43Zm19.21.2a6.707,6.707,0,0,1-2.92-.575,4.4,4.4,0,0,1-1.8-1.5,4.162,4.162,0,0,1-.7-2.05h1.95a3.214,3.214,0,0,0,.42,1.225,2.8,2.8,0,0,0,1.13.95,4.64,4.64,0,0,0,1.95.35,7.022,7.022,0,0,0,.92-.075,4.347,4.347,0,0,0,1.05-.275,2.228,2.228,0,0,0,.88-.6,1.516,1.516,0,0,0,.35-1.025,1.385,1.385,0,0,0-.6-1.2,4.462,4.462,0,0,0-1.55-.65c-.64-.167-1.31-.325-2.03-.475a14.539,14.539,0,0,1-2-.575,4.16,4.16,0,0,1-1.55-1.025,2.647,2.647,0,0,1-.6-1.825,3.09,3.09,0,0,1,1.23-2.625,7.365,7.365,0,0,1,6.35-.425,3.784,3.784,0,0,1,2.22,3.025h-1.9a2.08,2.08,0,0,0-.8-1.375,3.475,3.475,0,0,0-2.25-.575q-2.97,0-2.97,1.8a1.3,1.3,0,0,0,.6,1.15,5.089,5.089,0,0,0,1.55.65c.63.15,1.3.3,2,.45a10.982,10.982,0,0,1,2.02.575,3.892,3.892,0,0,1,1.55,1.075,2.686,2.686,0,0,1,.6,1.85,3.212,3.212,0,0,1-1.4,2.8A6.413,6.413,0,0,1,1299.17,43.2Zm9.36-.2V32.15h-2.55V30.5h2.55V26.025h1.88V30.5h2.87v1.65h-2.87V43Zm12.34.2a5.633,5.633,0,0,1-5.3-3.2,7.066,7.066,0,0,1-.75-3.25,6.968,6.968,0,0,1,.75-3.25,5.743,5.743,0,0,1,5.3-3.2,5.488,5.488,0,0,1,2.65.6,4.981,4.981,0,0,1,1.82,1.625V30.5h1.88V43h-1.88V41a5.069,5.069,0,0,1-1.82,1.6A5.488,5.488,0,0,1,1320.87,43.2Zm.25-1.7a4.011,4.011,0,0,0,3.82-2.375,5.569,5.569,0,0,0,.5-2.375,5.464,5.464,0,0,0-.5-2.375A4.011,4.011,0,0,0,1321.12,32a4.154,4.154,0,0,0-3.9,2.375,5.342,5.342,0,0,0-.53,2.375,5.447,5.447,0,0,0,.53,2.375,4.154,4.154,0,0,0,3.9,2.375Zm15.56,6.65a6.555,6.555,0,0,1-3.82-1.025,4.958,4.958,0,0,1-2-2.625h2.07a2.8,2.8,0,0,0,1.3,1.425,4.725,4.725,0,0,0,2.35.525,4.151,4.151,0,0,0,3.13-1.025,3.95,3.95,0,0,0,1-2.925V40.775A5.184,5.184,0,0,1,1336.23,43a6.124,6.124,0,0,1-3.2-.825,5.827,5.827,0,0,1-2.1-2.3,6.914,6.914,0,0,1-.75-3.225,6.818,6.818,0,0,1,.75-3.225,5.649,5.649,0,0,1,2.1-2.275,5.985,5.985,0,0,1,3.2-.85,5.434,5.434,0,0,1,2.65.6,4.879,4.879,0,0,1,1.83,1.6v-2h1.87V42.625a5.268,5.268,0,0,1-1.55,4.1A6.113,6.113,0,0,1,1336.68,48.15Zm-.2-6.85a4.14,4.14,0,0,0,2.33-.625A3.955,3.955,0,0,0,1340.28,39a5.286,5.286,0,0,0,.53-2.35,5.184,5.184,0,0,0-.53-2.35,3.955,3.955,0,0,0-1.47-1.675,4.14,4.14,0,0,0-2.33-.625,4.4,4.4,0,0,0-2.37.625,4.1,4.1,0,0,0-1.53,1.675,5.179,5.179,0,0,0-.52,2.35,5.28,5.28,0,0,0,.52,2.35,4.1,4.1,0,0,0,1.53,1.675A4.4,4.4,0,0,0,1336.48,41.3Zm9.85,1.7V30.5h1.87v3.075a5.163,5.163,0,0,1,.38-.85,4.8,4.8,0,0,1,.85-1.1,4.516,4.516,0,0,1,1.37-.925,4.686,4.686,0,0,1,2-.4h.13v1.875h-.23a3.891,3.891,0,0,0-2.42.775,4.862,4.862,0,0,0-1.55,1.975,6.357,6.357,0,0,0-.53,2.575V43Zm14.07.2a5.632,5.632,0,0,1-5.3-3.2,7.066,7.066,0,0,1-.75-3.25,6.968,6.968,0,0,1,.75-3.25,5.788,5.788,0,0,1,2.1-2.325,5.855,5.855,0,0,1,3.2-.875,5.435,5.435,0,0,1,2.65.6,5.093,5.093,0,0,1,1.83,1.625V30.5h1.87V43h-1.87V41a5.186,5.186,0,0,1-1.83,1.6A5.435,5.435,0,0,1,1360.4,43.2Zm.25-1.7a4.043,4.043,0,0,0,2.35-.65,4.109,4.109,0,0,0,1.48-1.725,5.722,5.722,0,0,0,.5-2.375,5.611,5.611,0,0,0-.5-2.375A4.109,4.109,0,0,0,1363,32.65a4.043,4.043,0,0,0-2.35-.65,4.182,4.182,0,0,0-3.9,2.375,5.336,5.336,0,0,0-.52,2.375,5.439,5.439,0,0,0,.52,2.375,4.182,4.182,0,0,0,3.9,2.375Zm9.85,1.5V30.5h1.87v1.9a4.843,4.843,0,0,1,1.35-1.425,4.085,4.085,0,0,1,2.45-.675,4.152,4.152,0,0,1,2.3.675,4.4,4.4,0,0,1,1.68,1.85,6.609,6.609,0,0,1,.77-1.025,5,5,0,0,1,1.43-1.05,4.523,4.523,0,0,1,2.1-.45,4.324,4.324,0,0,1,2.25.625,4.716,4.716,0,0,1,1.7,1.8,5.287,5.287,0,0,1,.67,2.725V43h-1.87V35.5a3.52,3.52,0,0,0-.9-2.525,2.846,2.846,0,0,0-2.2-.975,3.3,3.3,0,0,0-3.38,3.525V43h-1.87V35.5a3.52,3.52,0,0,0-.9-2.525,2.845,2.845,0,0,0-2.2-.975,3.3,3.3,0,0,0-3.38,3.525V43Z" fill="#fcf5e6"/>
    <path id="Path_794" data-name="Path 794" d="M538.707,41.586a6.293,6.293,0,1,0-6.293-6.293A6.293,6.293,0,0,0,538.707,41.586Z" fill="#c5f5f9"/>
    <path id="Path_795" data-name="Path 795" d="M1121.29,41.586a6.293,6.293,0,1,0-6.29-6.293A6.3,6.3,0,0,0,1121.29,41.586Z" fill="#c5f5f9"/>
    <path id="Path_796" data-name="Path 796" d="M263.333,41.586H251.244a.246.246,0,0,1-.1-.023.248.248,0,0,1-.084-.065.242.242,0,0,1-.048-.095.254.254,0,0,1,0-.106l2.329-12.1a.243.243,0,0,1,.238-.2H265.66a.244.244,0,0,1,.187.088.244.244,0,0,1,.049.095.238.238,0,0,1,0,.106l-2.328,12.1a.244.244,0,0,1-.238.2Z" fill="#c5f5f9"/>
    <path id="Path_797" data-name="Path 797" d="M845.333,41.586H833.244a.244.244,0,0,1-.188-.088.242.242,0,0,1-.048-.095.253.253,0,0,1,0-.106l2.329-12.1a.243.243,0,0,1,.238-.2H847.66a.246.246,0,0,1,.236.183.237.237,0,0,1,0,.106l-2.328,12.1a.243.243,0,0,1-.238.2Z" fill="#c5f5f9"/>
    <path id="Path_798" data-name="Path 798" d="M1428.33,41.586h-12.09a.238.238,0,0,1-.1-.023.224.224,0,0,1-.08-.065.186.186,0,0,1-.05-.095.38.38,0,0,1-.01-.106l2.33-12.1a.222.222,0,0,1,.09-.142.216.216,0,0,1,.15-.056h12.09a.208.208,0,0,1,.1.023.261.261,0,0,1,.09.065.316.316,0,0,1,.05.095.377.377,0,0,1,0,.106l-2.33,12.1a.252.252,0,0,1-.08.141A.264.264,0,0,1,1428.33,41.586Z" fill="#c5f5f9"/>
  </g>
</svg>
