<svg xmlns="http://www.w3.org/2000/svg" width="117.954" height="118" viewBox="0 0 117.954 118">
  <g id="Group_237" data-name="Group 237" transform="translate(-0.022)">
    <path id="Path_825" data-name="Path 825" d="M58.959,33.427h0A25.492,25.492,0,0,0,33.478,59v0A25.6,25.6,0,0,0,59.049,84.572h0A25.491,25.491,0,0,0,84.529,59v0A25.6,25.6,0,0,0,58.959,33.427Z" fill="#0d23bf"/>
    <path id="Path_826" data-name="Path 826" d="M117.977,59a12.538,12.538,0,1,0-12.515,12.561A12.577,12.577,0,0,0,117.977,59Z" fill="#f7c4d3"/>
    <path id="Path_827" data-name="Path 827" d="M25.1,59A12.538,12.538,0,1,0,12.584,71.561,12.577,12.577,0,0,0,25.1,59Z" fill="#f7c4d3"/>
    <path id="Path_828" data-name="Path 828" d="M71.539,105.439A12.538,12.538,0,1,0,58.978,118,12.522,12.522,0,0,0,71.539,105.439Z" fill="#f7c4d3"/>
    <path id="Path_829" data-name="Path 829" d="M71.539,12.561A12.538,12.538,0,1,0,58.978,25.122,12.522,12.522,0,0,0,71.539,12.561Z" fill="#f7c4d3"/>
  </g>
</svg>
