<svg id="Group_241" data-name="Group 241" xmlns="http://www.w3.org/2000/svg" width="225.999" height="58.002" viewBox="0 0 225.999 58.002">
  <path id="Path_833" data-name="Path 833" d="M90.723,7.333v10.5a.358.358,0,0,0,.027.144.365.365,0,0,0,.083.122.376.376,0,0,0,.125.081.382.382,0,0,0,.148.026h6.9a.686.686,0,0,1,.479.194.653.653,0,0,1,.2.467v7.94a.648.648,0,0,1-.051.253.662.662,0,0,1-.147.215.679.679,0,0,1-.22.143.691.691,0,0,1-.259.05h-6.9a.379.379,0,0,0-.273.107.365.365,0,0,0-.083.122.358.358,0,0,0-.027.144V43.635a4.5,4.5,0,0,0,1.124,3.453,5.205,5.205,0,0,0,3.538,1.019,17.318,17.318,0,0,0,2.51-.14.692.692,0,0,1,.292.012.684.684,0,0,1,.26.131.665.665,0,0,1,.179.225.649.649,0,0,1,.065.278v7.365a.642.642,0,0,1-.118.379.667.667,0,0,1-.321.243,17.37,17.37,0,0,1-5.578.778q-5.785,0-9.164-3.181t-3.379-8.749V27.841a.356.356,0,0,0-.027-.144.364.364,0,0,0-.083-.122.376.376,0,0,0-.125-.081.382.382,0,0,0-.148-.026h-6.1a.686.686,0,0,1-.479-.194.653.653,0,0,1-.2-.468v-7.94a.653.653,0,0,1,.2-.467.686.686,0,0,1,.479-.194h1.331a5.94,5.94,0,0,0,2.461-.358,5.826,5.826,0,0,0,2.082-1.33,6.207,6.207,0,0,0,1.594-4.433V7.333a.653.653,0,0,1,.2-.467.686.686,0,0,1,.479-.194h8.3a.684.684,0,0,1,.448.209A.652.652,0,0,1,90.723,7.333Z" fill="#0d23bf"/>
  <path id="Path_834" data-name="Path 834" d="M124.99,46.3a10.054,10.054,0,0,1,.765-4.313,10.275,10.275,0,0,1,2.534-3.611,15.882,15.882,0,0,1,8.519-3.772l9.7-1.415q2.98-.4,2.98-2.753a4.417,4.417,0,0,0-.434-2,4.533,4.533,0,0,0-1.295-1.608,9.089,9.089,0,0,0-10.3.4,6.623,6.623,0,0,0-2.119,3.819.644.644,0,0,1-.1.236.666.666,0,0,1-.188.179.683.683,0,0,1-.506.091l-8.152-1.688a.689.689,0,0,1-.435-.28.657.657,0,0,1-.107-.5,13.708,13.708,0,0,1,4.988-8.251q4.5-3.842,11.9-3.842,8.846,0,13.028,4.122a14.312,14.312,0,0,1,3.2,4.857,14.043,14.043,0,0,1,.981,5.7V50.658a36.254,36.254,0,0,0,.359,5.358.647.647,0,0,1-.013.287.658.658,0,0,1-.135.255.679.679,0,0,1-.234.175.693.693,0,0,1-.288.061h-8.47a.686.686,0,0,1-.441-.159.658.658,0,0,1-.229-.4,23.979,23.979,0,0,1-.287-4.067q-3.784,5.724-11.666,5.724a13.912,13.912,0,0,1-9.849-3.453,10.911,10.911,0,0,1-2.744-3.681A10.681,10.681,0,0,1,124.99,46.3Zm15.842,3.842a9.31,9.31,0,0,0,6.232-2.076c1.633-1.384,2.454-3.679,2.454-6.867V39.475l-8.925,1.33q-4.908.708-4.909,4.868a4.15,4.15,0,0,0,.339,1.733,4.24,4.24,0,0,0,1.032,1.448,5.209,5.209,0,0,0,1.741,1.01,5.3,5.3,0,0,0,2,.281Z" fill="#0d23bf"/>
  <path id="Path_835" data-name="Path 835" d="M180.769,56.818H171.39a.687.687,0,0,1-.479-.194.653.653,0,0,1-.2-.467V.661a.653.653,0,0,1,.2-.467A.687.687,0,0,1,171.39,0h9.379a.685.685,0,0,1,.479.194.654.654,0,0,1,.2.467v55.5a.654.654,0,0,1-.2.467A.685.685,0,0,1,180.769,56.818Z" fill="#0d23bf"/>
  <path id="Path_836" data-name="Path 836" d="M50.569,49.048a10.161,10.161,0,0,1-6.909-2.512,9.284,9.284,0,0,1-1.594-1.742.665.665,0,0,0-.3-.253.685.685,0,0,0-.395-.042.674.674,0,0,0-.35.184.648.648,0,0,0-.182.345l-1.825,9.223a.677.677,0,0,0,.047.39.7.7,0,0,0,.256.3A20.638,20.638,0,0,0,50.473,58a19.211,19.211,0,0,0,11.706-3.461A16.671,16.671,0,0,0,68.315,46.3a.556.556,0,0,0-.041-.438.572.572,0,0,0-.146-.173.585.585,0,0,0-.2-.1L60.083,43.3a.586.586,0,0,0-.413.036.565.565,0,0,0-.28.3Q57.119,49.056,50.569,49.048Z" fill="#0d23bf"/>
  <path id="Path_837" data-name="Path 837" d="M63.884,22.366Q58.7,17.039,49.54,17.031a20.815,20.815,0,0,0-2.725.179.692.692,0,0,0-.375.179.664.664,0,0,0-.2.358L44.7,25.617a.638.638,0,0,0,.027.356.654.654,0,0,0,.215.289.683.683,0,0,0,.7.078,9.535,9.535,0,0,1,4.064-.832q4.271,0,6.479,2.193a7.964,7.964,0,0,1,2.391,5.444H48.544a.7.7,0,0,0-.433.157.674.674,0,0,0-.236.388L46.728,39.5a.654.654,0,0,0,.015.286.664.664,0,0,0,.136.253.685.685,0,0,0,.232.175.7.7,0,0,0,.286.064H68.912l.08-.552V38.472c0-.521.048-1,.048-1.415Q69.072,27.748,63.884,22.366Z" fill="#0d23bf"/>
  <path id="Path_838" data-name="Path 838" d="M209.934,50.331A15.875,15.875,0,0,0,226,34.653a16.07,16.07,0,0,0-32.13,0A15.875,15.875,0,0,0,209.934,50.331Z" fill="#f7c4d3"/>
  <path id="Path_839" data-name="Path 839" d="M28.376,48.955H.908a.928.928,0,0,1-.386-.084.906.906,0,0,1-.313-.236.879.879,0,0,1-.18-.344.866.866,0,0,1-.013-.386L5.307,21.067a.875.875,0,0,1,.313-.516.914.914,0,0,1,.579-.2h27.46a.927.927,0,0,1,.386.084.906.906,0,0,1,.313.236.879.879,0,0,1,.18.344.867.867,0,0,1,.014.386L29.261,48.239a.874.874,0,0,1-.31.513A.915.915,0,0,1,28.376,48.955Z" fill="#f7c4d3"/>
</svg>
