<svg xmlns="http://www.w3.org/2000/svg" xmlns:xlink="http://www.w3.org/1999/xlink" width="90" height="23.774" viewBox="0 0 90 23.774">
  <defs>
    <clipPath id="clip-path">
      <rect id="Rectangle_414" data-name="Rectangle 414" width="90" height="23.774" fill="#fff"/>
    </clipPath>
  </defs>
  <g id="Group_214" data-name="Group 214" clip-path="url(#clip-path)">
    <path id="Path_782" data-name="Path 782" d="M36.138,3.005V7.311a.151.151,0,0,0,.151.152h2.749a.269.269,0,0,1,.191.08.272.272,0,0,1,.078.193v3.253a.271.271,0,0,1-.27.271H36.289a.151.151,0,0,0-.151.152v6.475a1.873,1.873,0,0,0,.449,1.416A2.009,2.009,0,0,0,38,19.719a6.9,6.9,0,0,0,.992-.06.271.271,0,0,1,.316.267v3.015a.267.267,0,0,1-.175.255,6.633,6.633,0,0,1-2.227.319,5.026,5.026,0,0,1-3.65-1.3,4.757,4.757,0,0,1-1.344-3.59V11.411a.151.151,0,0,0-.094-.141.149.149,0,0,0-.058-.011H29.332a.271.271,0,0,1-.27-.271V7.736a.27.27,0,0,1,.27-.273h.53a2.306,2.306,0,0,0,1.81-.69A2.618,2.618,0,0,0,32.3,4.954V3.005a.272.272,0,0,1,.079-.192.269.269,0,0,1,.191-.079h3.3a.27.27,0,0,1,.27.271Z" fill="#fff"/>
    <path id="Path_783" data-name="Path 783" d="M49.776,18.979a4.233,4.233,0,0,1,1.312-3.249,6.212,6.212,0,0,1,3.394-1.543l3.874-.578q1.191-.162,1.191-1.127A1.848,1.848,0,0,0,58.858,11a3.52,3.52,0,0,0-4.1.162,2.732,2.732,0,0,0-.845,1.565.268.268,0,0,1-.319.2l-3.259-.684a.271.271,0,0,1-.214-.305,5.658,5.658,0,0,1,1.985-3.39,6.911,6.911,0,0,1,4.739-1.577q3.523,0,5.186,1.689A5.915,5.915,0,0,1,63.7,12.989v7.778a15.6,15.6,0,0,0,.141,2.194.272.272,0,0,1-.061.218.27.27,0,0,1-.2.1H60.2a.269.269,0,0,1-.175-.065.272.272,0,0,1-.091-.164,9.943,9.943,0,0,1-.115-1.669,5.133,5.133,0,0,1-4.642,2.349,5.45,5.45,0,0,1-3.922-1.416,4.467,4.467,0,0,1-1.476-3.328Zm6.307,1.577a3.637,3.637,0,0,0,2.481-.854,3.558,3.558,0,0,0,.976-2.814v-.708l-3.554.546q-1.953.289-1.953,1.994a1.753,1.753,0,0,0,.544,1.3,2.069,2.069,0,0,0,1.514.53Z" fill="#fff"/>
    <path id="Path_784" data-name="Path 784" d="M71.977,23.291H68.26a.271.271,0,0,1-.27-.271V.271a.272.272,0,0,1,.079-.192A.269.269,0,0,1,68.26,0h3.717a.27.27,0,0,1,.192.079.272.272,0,0,1,.08.192V23.02a.272.272,0,0,1-.08.192.27.27,0,0,1-.192.079Z" fill="#fff"/>
    <path id="Path_785" data-name="Path 785" d="M20.17,20.106a4,4,0,0,1-2.755-1.029,3.76,3.76,0,0,1-.625-.716.268.268,0,0,0-.49.1l-.724,3.789a.274.274,0,0,0,.119.283,8.026,8.026,0,0,0,4.441,1.252,7.528,7.528,0,0,0,4.66-1.416,6.816,6.816,0,0,0,2.441-3.376.23.23,0,0,0,.011-.092.229.229,0,0,0-.166-.2l-3.126-.935a.23.23,0,0,0-.278.14A3.445,3.445,0,0,1,20.17,20.106Z" fill="#fff"/>
    <path id="Path_786" data-name="Path 786" d="M25.46,9.168a7.461,7.461,0,0,0-5.714-2.194,7.753,7.753,0,0,0-1.086.076.272.272,0,0,0-.228.219l-.617,3.225a.272.272,0,0,0,.1.264.269.269,0,0,0,.278.035,3.689,3.689,0,0,1,1.619-.343,3.458,3.458,0,0,1,2.58.9,3.309,3.309,0,0,1,.945,2.22H19.354a.274.274,0,0,0-.266.221l-.457,2.393a.273.273,0,0,0,.151.3.271.271,0,0,0,.115.026h8.563l.034-.225c0-.128,0-.3.016-.514s.016-.4.016-.578A8.416,8.416,0,0,0,25.46,9.168Z" fill="#fff"/>
    <path id="Path_787" data-name="Path 787" d="M83.605,20.633a6.428,6.428,0,1,0-6.4-6.428A6.412,6.412,0,0,0,83.605,20.633Z" fill="#f7c4d3"/>
    <path id="Path_788" data-name="Path 788" d="M11.437,20.068H.226a.226.226,0,0,1-.174-.082A.228.228,0,0,1,0,19.8L2.163,8.526a.225.225,0,0,1,.22-.183H13.594a.224.224,0,0,1,.174.082.226.226,0,0,1,.047.187L11.658,19.883a.227.227,0,0,1-.22.186Z" fill="#f7c4d3"/>
  </g>
</svg>
