<svg xmlns="http://www.w3.org/2000/svg" width="231.506" height="234.38" viewBox="0 0 231.506 234.38">
  <path id="Path_698" data-name="Path 698" d="M94.028,232.866,93.993,1.519A117.6,117.6,0,0,1,106.149,0l.006,40.565.026,193.815A117.908,117.908,0,0,1,94.028,232.866ZM125.323.158a117.417,117.417,0,0,1,12.161,1.727l.035,230.6a117.415,117.415,0,0,1-12.157,1.73ZM62.691,222.551,62.659,11.844A116.8,116.8,0,0,1,74.814,6.655l.029,221.08A116.683,116.683,0,0,1,62.691,222.551ZM156.659,7.38a116.837,116.837,0,0,1,12.158,5.455l.036,208.691a116.707,116.707,0,0,1-12.156,5.459ZM31.347,199.943l-.019-165.27,4.734-4.734q3.581-3.233,7.421-6.167l.023,186.853A118.256,118.256,0,0,1,31.347,199.943ZM188,25.3c.985.786,1.964,1.593,2.923,2.41l9.236,9.236.023,160.836-5.968,5.968q-3,2.752-6.186,5.3ZM.008,142.562,0,91.852A116.716,116.716,0,0,1,12.152,59.9l.018,114.618A116.718,116.718,0,0,1,.008,142.562Zm219.33-79a116.688,116.688,0,0,1,12.168,40.226v26.765a116.74,116.74,0,0,1-12.15,40.22Z" fill="#275757"/>
</svg>
