<svg id="Group_203" data-name="Group 203" xmlns="http://www.w3.org/2000/svg" width="202" height="202" viewBox="0 0 202 202">
  <path id="Path_553" data-name="Path 553" d="M39.137,202h-14.8L0,177.659v-14.8Z" fill="#275757"/>
  <path id="Path_554" data-name="Path 554" d="M77.277,202h-14.8L0,139.519v-14.8Z" fill="#275757"/>
  <path id="Path_555" data-name="Path 555" d="M115.411,202h-14.8L0,101.379v-14.8Z" fill="#275757"/>
  <path id="Path_556" data-name="Path 556" d="M153.551,202h-14.79L0,63.239v-14.8Z" fill="#275757"/>
  <path id="Path_557" data-name="Path 557" d="M191.691,202H176.9L0,25.1V10.3Z" fill="#275757"/>
  <path id="Path_558" data-name="Path 558" d="M202,174.162v14.8L13.035,0h14.8Z" fill="#275757"/>
  <path id="Path_559" data-name="Path 559" d="M202,136.022v14.8L51.176,0h14.8Z" fill="#275757"/>
  <path id="Path_560" data-name="Path 560" d="M202,97.882v14.8L89.322,0h14.8Z" fill="#275757"/>
  <path id="Path_561" data-name="Path 561" d="M202,59.742v14.8L127.455,0h14.8Z" fill="#275757"/>
  <path id="Path_562" data-name="Path 562" d="M202,21.6V36.4L165.6,0h14.79Z" fill="#275757"/>
</svg>
