<svg id="Group_240" data-name="Group 240" xmlns="http://www.w3.org/2000/svg" xmlns:xlink="http://www.w3.org/1999/xlink" width="33.831" height="32.666" viewBox="0 0 33.831 32.666">
  <defs>
    <clipPath id="clip-path">
      <rect id="Rectangle_423" data-name="Rectangle 423" width="33.831" height="32.666" transform="translate(0 0)" fill="none"/>
    </clipPath>
  </defs>
  <g id="Group_239" data-name="Group 239" clip-path="url(#clip-path)">
    <path id="Path_830" data-name="Path 830" d="M1.251,1.232a15.711,15.711,0,0,0,6.83,15.92,7.325,7.325,0,0,0,0,4.55,7.727,7.727,0,0,0,4.55,4.55l2.27-6.83,3.28,1.26,2.78-2.78-1.52-3,6.83-2.27a7.727,7.727,0,0,0-4.55-4.55,7.325,7.325,0,0,0-4.55,0,15.711,15.711,0,0,0-15.93-6.83Z" fill="none" stroke="#0d23bf" stroke-linecap="round" stroke-linejoin="round" stroke-width="2"/>
    <path id="Path_831" data-name="Path 831" d="M7.308,7.3a2.5,2.5,0,1,1,0,3.536A2.5,2.5,0,0,1,7.308,7.3Z" fill="none" stroke="#ea3d34" stroke-linecap="round" stroke-linejoin="round" stroke-width="2"/>
    <path id="Path_832" data-name="Path 832" d="M21.471,20.952a6.27,6.27,0,0,0,2,10.62,2.869,2.869,0,0,1-.25-3.28,2.6,2.6,0,0,1,1.52-1,5.691,5.691,0,0,0,4.3,4.3,5.45,5.45,0,0,0,3.79-.76,8.33,8.33,0,0,1-2-3.54c-.67-2.54.38-4-.76-5.81a4.721,4.721,0,0,0-2.27-1.77C24.711,18.442,21.651,20.812,21.471,20.952Z" fill="none" stroke="#ea3d34" stroke-linecap="round" stroke-linejoin="round" stroke-width="2"/>
  </g>
</svg>
